<svg width="746" height="777" viewBox="0 0 746 777" fill="none" xmlns="http://www.w3.org/2000/svg">
<path d="M221.217 775.895C219.517 774.895 219.417 770.395 219.417 704.395C219.417 635.795 219.517 633.895 221.317 632.895C223.417 631.795 244.317 631.495 248.117 632.495C249.317 632.795 250.517 634.195 250.917 635.595C251.217 636.895 251.817 637.895 252.217 637.695C264.617 631.295 263.917 631.395 280.417 631.395C295.917 631.395 295.917 631.395 302.917 634.795C315.617 640.995 324.117 651.795 327.917 666.495C330.117 675.195 329.917 693.595 327.417 703.495C322.717 721.795 309.517 734.595 291.217 738.295C278.517 740.895 265.317 739.895 257.217 735.795C253.417 733.895 253.417 733.895 253.417 753.595C253.417 764.495 252.917 774.095 252.417 774.895C251.717 776.095 248.617 776.495 237.217 776.695C228.417 776.795 222.217 776.495 221.217 775.895ZM279.517 710.395C292.617 705.795 299.817 687.295 293.717 673.895C286.417 657.595 270.417 653.995 259.717 666.195C254.717 671.895 253.117 677.395 253.517 687.595C253.917 695.495 254.317 697.095 256.917 701.395C259.017 704.795 261.417 706.995 265.317 708.995C271.517 712.295 273.417 712.495 279.517 710.395Z" fill="#00461C"/>
<path d="M571.816 774.495C566.816 773.195 560.816 771.095 558.616 769.995C554.616 767.995 554.416 767.595 554.416 763.395C554.416 758.695 556.916 746.695 558.516 743.695C559.916 741.095 566.216 741.395 574.316 744.295C591.716 750.495 606.716 749.795 614.516 742.295C617.216 739.795 621.116 732.295 620.316 731.395C620.016 731.195 617.416 732.195 614.416 733.695C609.216 736.295 608.216 736.395 594.316 736.395C579.816 736.395 579.816 736.395 572.316 732.695C559.816 726.495 551.116 714.895 548.416 700.995C547.116 694.095 547.116 675.695 548.416 668.795C549.816 661.495 555.316 650.095 560.016 644.895C565.716 638.495 574.316 633.395 582.416 631.395C592.916 628.795 610.316 629.595 617.016 632.995C621.716 635.295 622.016 635.295 623.716 633.695C626.116 631.195 649.416 630.995 651.816 633.495C653.216 634.895 653.416 640.895 653.416 684.695C653.416 738.595 653.016 742.795 647.916 752.895C644.616 759.295 637.616 766.995 631.916 770.295C623.616 775.195 614.516 776.895 596.916 776.895C583.516 776.795 579.416 776.395 571.816 774.495ZM608.916 707.095C612.916 705.195 617.216 701.095 619.116 697.595C621.116 693.595 621.916 682.395 620.516 675.695C617.716 662.295 605.016 654.495 594.716 659.695C582.316 665.995 577.916 683.095 584.916 697.395C587.716 703.195 591.316 706.395 597.316 708.495C601.116 709.895 604.116 709.495 608.916 707.095Z" fill="#00461C"/>
<path d="M32.8165 738.895C24.8165 737.895 12.0165 733.995 5.41653 730.495C0.916534 728.195 0.916534 728.195 1.01653 721.295C1.01653 717.195 1.91653 711.495 3.31653 707.095C5.51653 699.695 5.51653 699.695 11.2165 700.195C14.3165 700.495 21.5165 702.295 27.2165 704.295C45.3165 710.595 56.4165 710.195 63.6165 702.895C68.2165 698.395 68.5165 695.295 64.7165 691.695C60.6165 687.895 57.1165 686.395 38.9165 680.395C29.8165 677.395 20.3165 673.795 17.7165 672.195C11.2165 668.395 5.31653 662.395 2.41653 656.395C0.216534 651.895 -0.0834661 650.195 0.016534 639.395C0.016534 629.395 0.416534 626.395 2.31653 621.595C5.31653 614.095 13.8165 605.295 21.6165 601.595C32.3165 596.495 38.1165 595.595 56.4165 596.195C71.5165 596.595 73.7165 596.895 82.4165 599.795C96.0165 604.295 95.8165 603.995 95.1165 614.595C94.9165 619.395 94.1165 625.795 93.4165 628.695C92.2165 633.895 92.2165 633.895 88.3165 633.895C86.1165 633.895 82.7165 633.095 80.6165 631.995C75.5165 629.495 64.8165 626.195 59.1165 625.395C51.8165 624.395 45.0165 626.395 40.2165 630.995C36.7165 634.295 36.3165 635.195 36.9165 637.595C38.3165 643.495 44.6165 647.095 61.9165 652.395C68.5165 654.395 76.7165 657.295 80.2165 658.895C88.2165 662.595 96.5165 670.495 99.5165 677.195C101.617 681.795 101.917 683.895 101.917 695.895C101.917 708.195 101.717 709.795 99.5165 714.395C94.2165 725.095 82.0165 734.095 68.2165 737.395C60.2165 739.295 42.0165 739.995 32.8165 738.895Z" fill="#00461C"/>
<path d="M132.417 738.495C125.917 736.595 122.017 734.395 117.817 730.095C111.617 723.795 109.917 718.995 109.917 706.895C109.917 697.795 110.217 695.695 112.317 691.495C116.917 682.095 125.717 675.595 138.117 672.395C141.917 671.395 148.717 670.895 158.117 670.895C166.017 670.895 172.417 670.595 172.417 670.295C172.417 667.895 168.617 662.495 165.517 660.695C158.617 656.295 141.517 658.595 132.217 664.995C128.517 667.695 121.817 667.495 120.317 664.795C119.017 662.295 117.817 645.195 118.817 641.595C119.617 638.395 126.917 634.695 136.917 632.295C145.417 630.295 165.217 630.095 173.917 631.895C191.317 635.495 202.717 646.995 205.417 663.595C206.017 666.795 206.417 684.095 206.417 702.095C206.417 733.395 206.317 734.895 204.517 735.895C203.417 736.395 197.417 736.895 191.017 736.895C181.917 736.895 179.217 736.595 178.017 735.295C177.117 734.495 176.417 733.395 176.417 732.895C176.417 732.495 173.317 733.695 169.417 735.695C162.717 739.095 162.117 739.195 149.717 739.495C141.217 739.695 135.417 739.395 132.417 738.495ZM161.917 710.995C168.917 707.795 173.217 701.295 173.417 693.995C173.417 691.695 157.017 692.995 151.117 695.795C143.217 699.595 141.617 705.395 147.217 710.595C150.317 713.495 156.217 713.595 161.917 710.995Z" fill="#00461C"/>
<path d="M689.316 738.895C681.016 738.095 670.816 734.995 665.716 731.895C662.916 730.195 662.416 729.395 662.416 726.095C662.416 721.495 665.916 707.195 667.516 705.295C669.216 703.195 673.816 703.595 680.716 706.495C696.616 713.295 707.816 713.595 711.816 707.395C713.316 705.095 713.316 704.795 711.316 702.995C710.116 701.895 704.616 699.595 699.016 697.895C676.316 690.795 669.216 686.195 665.416 676.095C663.616 671.395 663.316 668.795 663.616 661.795C664.516 641.695 676.216 631.795 700.916 630.195C714.416 629.395 733.616 633.095 738.716 637.595C740.816 639.495 741.016 648.295 739.116 657.395C737.816 663.295 737.816 663.395 734.116 663.695C731.816 663.895 727.916 662.995 723.816 661.395C710.116 655.895 700.116 655.795 697.316 661.095C695.516 664.495 699.516 667.095 712.516 670.895C726.416 674.895 732.916 677.795 737.316 682.095C742.516 687.195 744.716 692.395 745.216 701.295C746.316 720.395 738.816 731.795 721.516 736.895C713.716 739.095 699.816 739.995 689.316 738.895Z" fill="#00461C"/>
<path d="M342.217 735.795C340.517 734.895 340.417 730.495 340.417 665.895C340.417 603.295 340.617 596.895 342.017 595.395C343.417 593.995 345.717 593.795 357.617 594.095C368.617 594.295 371.717 594.695 372.417 595.895C373.017 596.795 373.417 624.395 373.417 665.495C373.417 730.195 373.317 733.695 371.617 735.195C370.117 736.595 367.517 736.895 356.817 736.895C349.717 736.895 343.117 736.395 342.217 735.795Z" fill="#00461C"/>
<path d="M392.217 735.795C390.517 734.895 390.417 731.295 390.417 684.395C390.417 635.595 390.517 633.895 392.317 632.895C394.817 631.595 417.417 631.595 420.817 632.895C423.417 633.895 423.417 633.895 423.417 684.295C423.417 733.195 423.317 734.895 421.517 735.895C419.017 737.195 394.517 737.195 392.217 735.795Z" fill="#00461C"/>
<path d="M440.217 735.795C438.517 734.895 438.417 731.395 438.417 684.895C438.417 640.895 438.617 634.895 440.017 633.495C441.217 632.195 443.917 631.895 452.517 631.895C464.517 631.895 466.917 632.595 467.817 636.295C468.417 638.795 468.417 638.795 474.017 635.395C481.417 630.895 488.617 629.495 500.017 630.195C511.517 630.995 518.817 633.695 525.317 639.495C531.317 644.895 534.917 651.995 536.417 660.895C536.917 664.495 537.417 682.295 537.417 700.595C537.417 729.395 537.217 733.995 535.817 735.295C534.617 736.595 531.717 736.895 520.417 736.895C507.717 736.895 506.417 736.695 505.417 734.995C504.817 733.795 504.417 721.695 504.417 702.695C504.417 675.395 504.217 671.995 502.517 668.295C497.917 658.295 487.117 656.195 478.217 663.695C471.817 669.095 471.417 671.095 471.417 704.095C471.417 729.695 471.217 733.995 469.817 735.295C468.617 736.595 465.817 736.895 455.117 736.895C447.817 736.895 441.117 736.395 440.217 735.795Z" fill="#00461C"/>
<path d="M396.616 625.795C391.416 623.195 389.816 620.295 388.916 611.895C388.416 606.295 388.616 604.795 390.616 600.995C393.716 594.995 397.916 592.895 406.716 592.895C419.216 592.895 424.516 597.395 425.216 608.495C425.816 616.995 423.116 622.995 417.516 625.795C412.016 628.695 402.416 628.695 396.616 625.795Z" fill="#00461C"/>
<path d="M149.517 562.795C139.217 560.795 130.517 554.295 125.317 544.695C121.917 538.395 121.917 538.395 121.917 513.395C121.917 488.395 121.917 488.395 137.317 459.395C145.717 443.495 155.217 425.695 158.417 419.895C161.517 414.095 166.117 405.595 168.617 400.895C186.617 366.895 190.317 360.295 193.117 356.995C194.817 354.895 199.117 351.695 202.617 349.795C208.917 346.395 208.917 346.395 250.617 346.095C292.417 345.795 292.417 345.795 300.617 337.595C314.017 324.195 329.317 317.895 348.717 317.895C357.617 317.895 357.617 317.895 357.117 284.195C356.717 252.495 356.517 249.595 354.117 238.295C350.917 223.695 343.917 201.895 338.117 188.395C333.717 178.395 333.717 178.395 315.317 177.695C287.217 176.695 273.217 174.595 254.817 168.395C222.917 157.795 199.817 137.395 185.317 107.395C175.417 86.7952 171.617 69.9952 170.717 42.2952C170.017 20.6952 170.817 12.3952 173.817 9.39522C177.317 5.89522 185.917 4.59522 204.917 4.49522C225.417 4.39522 239.317 5.99522 257.717 10.4952C301.117 21.0952 329.917 41.8952 345.017 73.3952C352.617 89.0952 353.917 96.1952 353.917 119.895C353.917 132.995 353.417 142.795 352.617 146.995C351.217 153.495 351.217 153.495 357.117 165.995C360.417 172.795 364.317 181.595 365.917 185.395C367.517 189.295 369.117 192.795 369.417 193.195C369.817 193.595 370.917 191.195 371.917 187.695C372.817 184.195 375.617 177.095 377.917 171.895C381.917 163.095 382.117 161.995 381.317 157.895C380.817 155.395 380.117 145.095 379.717 134.895C379.317 120.095 379.517 114.195 380.917 105.495C385.017 79.2952 396.617 57.2952 416.017 38.8952C444.817 11.5952 487.617 -1.80478 539.917 0.195218C559.117 0.995218 562.817 1.79522 565.117 6.19522C566.717 8.99522 566.917 12.3952 566.917 33.3952C566.917 54.2952 566.617 58.7952 564.617 68.5952C558.817 97.3952 547.317 119.895 528.917 138.495C503.317 164.295 477.217 174.095 419.517 179.395C410.517 180.295 402.817 181.195 402.317 181.395C401.117 182.195 397.617 192.195 394.817 202.395C390.317 218.995 389.417 231.795 389.417 276.495C389.417 317.595 389.417 317.595 397.017 318.195C415.817 319.795 433.417 328.095 443.817 340.195C448.617 345.795 448.617 345.795 488.217 346.095C527.917 346.395 527.917 346.395 534.017 349.695C537.417 351.495 541.517 354.495 543.217 356.195C545.917 359.095 561.617 386.695 580.417 421.895C584.017 428.795 592.817 444.595 599.817 457.095C619.317 491.995 617.817 487.395 617.917 513.395C617.917 534.195 617.817 535.695 615.617 541.195C611.217 551.895 601.017 560.095 588.617 562.795C582.217 564.095 156.517 564.195 149.517 562.795ZM584.917 539.795C589.217 537.695 595.217 531.295 594.117 530.195C593.917 529.995 592.117 530.495 590.117 531.395C587.017 532.695 559.917 532.895 370.117 532.895C158.717 532.995 153.517 532.895 148.517 530.995C143.517 529.095 143.517 529.095 144.817 531.795C147.117 535.995 151.817 539.895 156.517 541.395C160.217 542.595 195.317 542.695 370.417 542.595C580.017 542.395 580.017 542.395 584.917 539.795ZM584.117 511.195C588.917 508.595 591.817 505.195 593.417 500.395C594.517 497.095 594.117 496.195 581.617 473.695C555.617 426.795 542.517 403.095 534.917 388.895C530.717 380.895 526.317 373.395 525.117 372.195C520.817 367.495 516.617 366.795 492.917 367.095C470.917 367.395 470.917 367.395 480.917 371.295C495.117 376.895 506.617 382.295 508.717 384.295C510.817 386.495 511.017 394.595 508.917 397.595C506.917 400.495 492.817 409.395 482.917 413.995C469.217 420.395 458.117 422.995 441.617 423.595C427.617 424.095 427.317 424.195 427.717 426.295C428.017 427.395 428.617 431.395 428.917 435.195C429.517 440.995 430.017 442.295 432.617 444.395C434.217 445.795 437.317 447.195 439.517 447.495C443.117 448.095 443.417 448.395 443.417 451.495C443.417 454.895 443.417 454.895 438.417 454.895C432.317 454.895 425.717 452.395 424.217 449.495C423.617 448.395 422.317 442.195 421.417 435.895C419.917 425.595 419.517 424.295 417.417 423.195C414.217 421.595 411.417 423.195 411.417 426.595C411.417 431.695 413.717 442.395 415.517 446.095C416.617 448.195 417.417 450.395 417.417 451.095C417.517 453.295 430.717 459.895 436.617 460.595C440.217 461.095 440.417 461.395 440.417 464.695C440.417 468.195 440.417 468.195 433.417 467.595C424.817 466.895 414.117 461.795 413.617 458.195C413.417 456.895 412.617 455.895 411.917 455.895C411.117 455.895 409.817 454.595 409.017 453.095C407.317 449.795 404.417 435.295 404.417 430.195C404.417 426.895 404.217 426.695 401.717 427.295C400.117 427.595 396.117 428.195 392.717 428.495C386.417 429.195 386.417 429.195 386.417 441.495C386.417 453.895 386.417 453.895 382.917 453.895C379.417 453.895 379.417 453.895 379.417 441.895C379.417 429.895 379.417 429.895 375.017 429.895C369.817 429.895 369.417 430.695 369.417 441.695C369.417 448.895 369.417 448.895 365.917 448.895C362.417 448.895 362.417 448.895 362.417 439.495C362.417 428.695 363.417 429.695 350.917 428.395C347.617 427.995 342.417 426.795 339.317 425.795C334.117 423.995 333.317 423.895 327.317 425.395C317.417 427.695 292.317 427.395 279.317 424.795C258.117 420.595 235.617 408.995 230.817 399.795C230.117 398.295 229.417 394.495 229.417 391.495C229.417 382.895 231.417 381.195 250.717 373.695C266.917 367.395 266.917 367.395 244.417 367.095C214.217 366.695 213.917 366.895 205.217 382.895C203.217 386.495 192.317 407.195 180.917 428.895C169.517 450.595 156.917 474.495 152.817 482.095C148.717 489.595 145.417 496.695 145.417 497.895C145.417 503.995 152.517 510.895 160.917 512.995C162.617 513.395 257.517 513.595 371.917 513.495C579.917 513.395 579.917 513.395 584.117 511.195ZM391.517 403.495C395.217 402.695 400.017 401.095 402.317 399.995C407.117 397.495 413.317 397.295 421.917 399.395C429.017 401.095 442.217 401.295 449.617 399.795C455.817 398.595 470.417 393.995 470.417 393.295C470.417 392.195 452.917 384.795 448.117 383.795C441.117 382.295 439.817 381.495 439.117 378.195C438.317 374.395 431.917 364.095 426.317 357.695C421.417 352.095 413.817 346.995 405.817 343.895C400.917 342.095 400.917 342.095 401.217 348.795C401.517 354.395 401.217 355.895 399.417 358.195C397.617 360.495 396.517 360.895 392.417 360.895C387.917 360.895 387.017 360.395 381.417 355.695C367.517 343.795 363.717 341.495 355.417 339.895C349.017 338.695 342.417 339.995 332.617 344.395C321.317 349.595 312.517 359.495 303.817 376.395C299.717 384.395 299.717 384.395 292.817 384.495C287.117 384.495 284.117 385.295 275.017 388.895C262.717 393.795 262.717 394.195 273.817 397.895C291.817 403.795 305.917 404.495 319.617 399.895C330.217 396.295 331.717 396.295 338.617 398.995C352.317 404.495 376.917 406.595 391.517 403.495ZM436.917 155.795C466.417 151.695 485.817 144.095 504.617 128.995C523.617 113.895 537.617 89.7952 543.317 62.2952C545.717 50.8952 547.217 33.7952 546.617 26.0952C546.317 21.3952 545.917 20.7952 543.617 20.1952C539.417 19.1952 509.017 21.5952 497.717 23.8952C462.317 30.9952 433.717 48.2952 417.517 72.2952C406.917 87.8952 402.317 101.995 399.917 125.895C399.217 132.395 399.217 132.395 403.917 125.395C425.117 94.0952 448.717 71.2952 473.417 58.0952C482.917 52.9952 498.217 47.8952 504.017 47.8952C508.317 47.8952 508.417 47.9952 508.417 51.1952C508.317 54.0952 507.617 54.7952 501.617 58.5952C487.517 67.3952 459.917 92.2952 443.917 110.495C435.417 120.295 420.717 140.895 414.817 151.295C410.517 158.895 410.517 158.895 416.717 158.295C420.117 157.995 429.217 156.895 436.917 155.795ZM320.817 151.195C311.917 137.095 292.317 112.795 280.817 101.395C265.917 86.5952 240.517 65.2952 234.717 62.5952C233.417 61.9952 232.417 61.1952 232.417 60.6952C232.417 60.2952 231.517 59.8952 230.417 59.8952C228.817 59.8952 228.417 59.1952 228.417 56.2952C228.417 52.5952 228.417 52.5952 234.317 53.2952C265.017 56.7952 299.117 81.1952 326.917 119.595C332.317 127.195 332.917 127.695 333.717 125.595C334.217 124.395 334.217 120.295 333.917 116.395C331.017 87.6952 314.517 61.6952 289.517 46.8952C274.817 38.1952 251.817 30.4952 230.617 27.3952C220.017 25.7952 193.517 25.0952 191.517 26.3952C189.017 27.8952 191.317 53.3952 195.417 69.4952C204.017 103.695 223.617 128.995 251.917 142.495C269.317 150.795 294.817 156.295 318.217 156.795C324.517 156.895 324.517 156.895 320.817 151.195Z" fill="#00461C"/>
<path d="M177.717 506.495C174.817 505.095 172.417 503.495 172.417 502.895C172.417 502.395 171.817 501.895 171.117 501.895C167.417 501.895 164.917 486.995 167.517 480.195C168.817 476.595 174.317 470.895 176.517 470.895C177.417 470.895 178.417 470.195 178.817 469.395C179.117 468.395 180.717 467.895 183.417 467.895C185.617 467.895 187.417 467.495 187.417 466.895C187.417 466.395 189.717 465.895 192.417 465.895C197.417 465.895 197.417 465.895 197.417 469.395C197.417 472.895 197.417 472.895 192.417 472.895C189.717 472.895 187.417 473.295 187.417 473.895C187.417 474.395 186.217 475.195 184.817 475.495C181.817 476.295 176.017 482.095 174.317 486.195C173.317 488.495 173.417 489.595 175.017 492.795C179.017 501.195 193.517 503.995 204.517 498.695C207.617 497.095 210.617 495.895 211.217 495.895C211.917 495.895 212.417 495.095 212.417 494.195C212.417 493.195 213.117 491.495 213.917 490.495C215.617 488.195 215.917 483.295 214.417 482.395C213.917 482.095 213.417 480.195 213.417 478.295C213.417 475.095 213.617 474.895 216.917 474.895C221.517 474.895 222.417 476.895 222.417 486.595C222.417 494.695 220.817 498.895 217.817 498.895C217.017 498.895 216.417 499.795 216.417 500.795C216.417 502.195 214.717 503.595 210.717 505.495C205.717 507.895 203.417 508.295 193.917 508.595C183.817 508.995 182.517 508.795 177.717 506.495Z" fill="#00461C"/>
<path d="M532.317 507.595C523.417 505.095 515.417 497.595 515.417 491.695C515.417 488.595 513.617 487.195 501.717 480.895C497.117 478.495 493.417 476.195 493.417 475.695C493.417 475.295 492.517 474.895 491.417 474.895C490.117 474.895 489.417 475.595 489.417 476.695C489.417 477.695 487.417 480.495 484.917 482.895C481.717 485.995 480.417 488.095 480.417 490.095C480.417 492.595 480.117 492.895 477.017 492.895C474.417 492.895 473.517 492.395 473.017 490.695C472.117 487.095 472.317 482.895 473.417 482.895C474.017 482.895 474.417 482.395 474.417 481.695C474.417 479.795 482.617 471.895 484.517 471.895C485.617 471.895 486.417 470.995 486.617 469.695C486.817 467.795 487.617 467.295 491.017 467.095C493.817 466.895 495.717 467.295 496.717 468.295C497.617 469.195 498.617 469.895 499.117 469.895C499.617 469.895 504.517 472.395 509.917 475.395C515.417 478.395 520.217 480.895 520.617 480.895C521.117 480.895 521.417 481.795 521.417 482.995C521.417 485.995 525.417 494.395 527.417 495.495C539.317 502.195 544.317 503.195 552.617 500.395C557.717 498.595 563.117 493.795 564.017 490.295C564.517 488.395 565.317 487.895 568.017 487.895C571.117 487.895 571.417 488.195 571.417 490.895C571.417 497.595 567.117 503.595 560.417 506.595C555.717 508.695 538.317 509.295 532.317 507.595Z" fill="#00461C"/>
<path d="M462.617 503.295C458.717 500.595 457.417 496.595 457.417 487.695C457.417 480.395 457.717 478.895 459.917 475.595C461.417 473.495 463.317 471.895 464.417 471.895C465.617 471.895 466.417 471.195 466.417 470.195C466.417 469.295 467.417 467.495 468.517 466.195C470.517 464.095 470.617 463.895 468.917 463.295C467.917 462.895 465.317 463.495 462.517 464.895C459.917 466.095 455.217 467.395 451.717 467.695C445.417 468.195 445.417 468.195 445.417 464.495C445.417 461.395 445.717 460.895 447.817 460.895C449.117 460.895 453.317 459.295 457.017 457.395C460.817 455.495 465.317 453.895 466.917 453.895C468.617 453.895 472.717 455.295 476.217 457.095C481.517 459.895 482.417 460.795 482.417 463.095C482.417 466.195 474.117 474.795 471.217 474.895C470.217 474.895 469.417 475.595 469.417 476.395C469.417 477.195 468.317 479.495 466.917 481.495C463.817 486.095 463.717 489.595 466.717 493.995C469.417 497.995 473.417 499.195 473.417 495.995C473.417 494.295 474.017 493.895 476.917 493.895C480.217 493.895 480.417 494.095 480.417 497.395C480.417 500.495 480.117 500.895 477.917 500.895C476.117 500.895 475.417 501.395 475.417 502.895C475.417 504.595 474.717 504.895 470.117 504.895C467.017 504.895 464.017 504.295 462.617 503.295Z" fill="#00461C"/>
<path d="M278.916 497.295C276.716 496.495 274.416 495.295 273.916 494.595C273.316 493.995 272.016 492.895 270.916 492.295C269.916 491.695 268.216 489.595 267.116 487.595C263.416 480.395 266.716 465.895 272.916 462.495C274.016 461.895 275.316 460.795 275.716 460.195C276.116 459.495 277.616 458.895 278.916 458.895C280.316 458.895 281.416 458.495 281.416 457.995C281.416 457.495 282.516 456.795 283.916 456.495C286.216 455.895 286.416 455.395 286.416 449.895C286.416 443.895 286.416 443.895 290.516 443.895C294.716 443.895 294.716 443.895 294.016 449.195C293.716 451.995 293.416 456.295 293.416 458.595C293.416 462.695 293.316 462.695 289.216 463.395C286.916 463.795 284.416 464.795 283.616 465.495C282.916 466.295 281.716 466.895 281.116 466.895C279.716 466.995 273.916 474.495 273.016 477.395C271.916 481.095 276.816 487.195 283.016 489.695C291.316 492.995 302.016 492.195 306.816 487.695C307.916 486.695 309.116 485.895 309.516 485.895C309.816 485.895 311.216 484.295 312.516 482.395C314.916 478.895 314.916 478.895 345.216 478.895C374.216 478.895 375.516 478.795 377.116 476.895C378.216 475.695 380.116 474.895 382.116 474.895C385.216 474.895 385.416 475.095 385.416 478.195C385.316 485.595 383.816 485.895 349.416 485.895C321.416 485.895 320.516 485.995 319.916 487.895C319.116 490.295 313.416 494.895 311.116 494.895C310.116 494.895 309.416 495.295 309.416 495.695C309.416 498.795 286.316 499.995 278.916 497.295Z" fill="#00461C"/>
<path d="M184.617 494.295C182.817 493.095 182.417 491.795 182.417 487.895C182.417 480.795 185.117 478.895 195.517 478.895C204.917 478.895 206.417 479.995 206.417 486.695C206.417 489.295 206.017 491.895 205.617 492.595C203.417 495.995 188.817 497.195 184.617 494.295ZM197.317 487.295C197.517 487.095 197.517 486.595 197.117 486.295C196.217 485.295 191.417 486.795 191.417 487.995C191.417 488.995 196.217 488.395 197.317 487.295Z" fill="#00461C"/>
<path d="M535.817 494.895C530.617 492.795 528.617 484.695 532.417 480.895C536.017 477.295 552.017 478.295 554.617 482.295C555.017 482.895 555.417 485.495 555.417 488.095C555.417 494.395 553.217 495.895 544.417 495.795C540.817 495.795 536.917 495.395 535.817 494.895ZM545.817 487.995C546.517 486.895 544.117 485.895 541.117 485.895C538.917 485.995 538.917 485.995 540.817 487.395C543.017 489.095 545.017 489.295 545.817 487.995Z" fill="#00461C"/>
<path d="M285.416 484.595C283.316 483.495 282.916 482.595 282.616 477.795C282.216 471.095 283.416 469.795 290.416 469.095C295.416 468.595 295.416 468.595 295.416 472.195C295.416 475.195 295.016 475.795 292.716 476.395C290.416 476.895 290.216 477.195 291.616 477.995C292.616 478.595 294.316 478.495 296.116 477.795C297.616 477.195 298.316 476.495 297.716 476.195C297.016 475.895 296.416 474.195 296.416 472.295C296.416 468.995 296.516 468.895 300.216 468.895C305.416 468.895 306.416 470.295 306.416 477.195C306.416 482.895 306.316 482.995 302.916 484.495C298.716 486.195 288.816 486.295 285.416 484.595Z" fill="#00461C"/>
<path d="M561.616 482.695C560.916 481.995 560.416 480.995 560.416 480.495C560.416 479.895 557.516 478.095 553.916 476.395C548.016 473.595 547.516 473.195 547.416 470.195C547.416 467.095 547.616 466.895 551.216 466.895C556.116 466.995 563.416 470.295 564.116 472.895C564.416 473.995 565.416 474.895 566.416 474.895C568.516 474.895 569.416 476.795 569.416 480.995C569.416 483.595 569.116 483.895 566.116 483.895C564.316 483.895 562.316 483.395 561.616 482.695Z" fill="#00461C"/>
<path d="M518.417 474.895C517.317 473.795 516.017 472.895 515.417 472.895C514.917 472.895 507.817 469.195 499.717 464.795C470.617 448.795 470.417 448.695 463.017 449.495C458.717 449.895 456.417 450.595 456.417 451.395C456.417 452.995 454.117 453.895 449.817 453.895C446.617 453.895 446.417 453.695 446.417 450.495C446.417 446.995 447.917 445.895 453.217 445.895C454.417 445.895 455.417 445.295 455.417 444.495C455.417 440.995 474.117 441.195 480.917 444.695C484.917 446.695 484.917 446.695 484.617 439.595C484.317 432.895 484.517 432.095 487.417 427.695C491.917 420.895 496.917 418.795 509.817 418.195C517.917 417.695 521.217 417.995 525.017 419.295C530.017 420.995 536.417 424.795 536.417 426.195C536.417 426.595 537.317 427.795 538.317 428.795C539.417 429.895 540.617 432.795 540.917 435.295C542.617 446.095 538.417 454.895 531.817 454.895C528.617 454.895 528.417 454.695 528.417 451.495C528.417 449.695 529.117 447.595 530.017 446.795C530.817 446.095 532.217 444.295 532.917 442.795C534.217 440.395 534.117 439.595 532.617 436.095C530.917 431.895 530.817 431.895 522.417 427.695C514.417 423.595 506.117 424.095 498.917 428.995C494.617 431.995 491.117 437.295 491.817 439.695C493.017 443.195 499.717 448.895 505.317 450.995C510.017 452.695 512.117 452.895 519.117 452.395C527.417 451.695 527.417 451.695 527.417 455.195C527.417 458.495 527.117 458.895 524.217 459.395C522.417 459.695 518.417 459.995 515.417 460.195C509.917 460.395 509.917 460.395 515.217 463.295C518.017 464.895 520.417 466.595 520.417 467.095C520.417 467.595 523.417 467.695 527.417 467.295C534.417 466.595 534.417 466.595 534.417 470.195C534.417 473.295 534.017 473.795 531.417 474.395C529.817 474.795 528.417 475.495 528.417 475.995C528.417 477.795 520.517 476.995 518.417 474.895Z" fill="#00461C"/>
<path d="M204.417 471.395C204.417 468.095 204.617 467.895 207.917 467.895C211.217 467.895 211.417 468.095 211.417 471.395C211.417 474.695 211.217 474.895 207.917 474.895C204.617 474.895 204.417 474.695 204.417 471.395Z" fill="#00461C"/>
<path d="M311.417 468.895C309.517 466.795 306.917 465.095 305.717 464.995C303.817 464.895 303.417 464.295 303.417 461.395C303.417 457.995 303.517 457.895 307.417 457.895C309.617 457.895 311.417 458.395 311.417 458.895C311.417 459.495 312.217 459.895 313.217 459.895C314.217 459.895 316.517 461.195 318.417 462.895C321.917 465.795 321.917 465.795 342.217 465.895C359.517 465.895 362.417 465.695 362.417 464.395C362.417 463.395 363.517 462.895 365.917 462.895C369.417 462.895 369.417 462.895 369.417 467.895C369.417 472.895 369.417 472.895 342.217 472.795C314.917 472.695 314.917 472.695 311.417 468.895Z" fill="#00461C"/>
<path d="M211.917 459.995C205.417 458.295 198.417 452.995 198.417 449.695C198.417 448.695 198.017 447.895 197.417 447.895C196.817 447.895 196.417 444.595 196.417 439.995C196.417 433.495 196.817 431.595 198.717 428.795C204.017 420.895 214.417 417.195 228.417 418.195C241.017 419.095 249.417 424.095 249.417 430.595C249.417 433.695 249.217 433.895 246.117 433.895C243.917 433.895 242.017 433.095 240.817 431.795C238.117 428.795 232.117 425.995 227.017 425.295C220.617 424.395 213.117 427.195 207.717 432.495C204.117 436.095 203.417 437.495 203.417 440.595C203.517 443.895 204.117 444.895 207.917 447.895C215.817 454.095 218.117 454.395 235.217 452.195C239.417 451.695 239.417 451.695 239.417 455.195C239.417 457.595 238.817 458.895 237.717 459.395C235.117 460.495 215.417 460.995 211.917 459.995Z" fill="#00461C"/>
<path d="M303.417 449.895C303.417 442.895 303.417 442.895 306.917 442.895C310.417 442.895 310.417 442.895 310.417 449.895C310.417 456.895 310.417 456.895 306.917 456.895C303.417 456.895 303.417 456.895 303.417 449.895Z" fill="#00461C"/>
<path d="M242.417 447.395C242.417 443.995 242.517 443.895 246.417 443.895C250.317 443.895 250.417 443.995 250.417 447.395C250.417 450.795 250.317 450.895 246.417 450.895C242.517 450.895 242.417 450.795 242.417 447.395Z" fill="#00461C"/>
<path d="M214.717 446.695C212.817 445.795 212.417 444.795 212.417 440.395C212.417 433.695 214.317 431.895 222.217 431.195C232.817 430.195 236.417 432.295 236.417 439.295C236.417 445.695 234.117 447.295 224.517 447.595C220.317 447.795 215.917 447.395 214.717 446.695ZM226.217 439.995C227.317 439.295 227.317 439.095 226.017 438.595C224.117 437.895 221.417 438.695 221.417 439.995C221.417 441.095 224.517 441.095 226.217 439.995Z" fill="#00461C"/>
<path d="M502.916 444.395C500.116 441.595 499.616 436.395 501.816 433.395C503.016 431.795 504.716 431.395 511.116 431.095C521.916 430.695 523.816 431.795 524.216 438.895C524.616 445.995 523.416 446.895 513.216 446.895C506.216 446.895 505.016 446.595 502.916 444.395ZM514.916 438.895C514.616 438.395 513.416 437.895 512.316 437.895C511.316 437.895 510.416 438.395 510.416 438.895C510.416 439.495 511.616 439.895 513.016 439.895C514.416 439.895 515.316 439.495 514.916 438.895Z" fill="#00461C"/>
<path d="M153.517 544.395C145.217 541.795 140.417 535.295 140.417 526.395C140.417 520.795 140.417 520.795 144.217 523.795C152.317 530.395 135.017 529.895 370.217 529.895C582.317 529.895 583.717 529.895 588.217 527.895C590.717 526.795 594.317 524.695 596.117 523.295C599.517 520.695 599.517 520.695 598.817 525.595C597.517 536.195 593.017 541.695 583.717 544.495C576.917 546.495 160.117 546.395 153.517 544.395Z" fill="#1D8039"/>
<path d="M178.417 507.295C176.517 506.495 174.717 505.495 174.417 504.995C174.117 504.595 173.117 503.995 172.217 503.595C171.217 503.295 170.417 501.995 170.417 500.895C170.417 499.795 169.817 498.895 169.017 498.895C167.317 498.895 166.417 496.695 166.417 492.795C166.417 489.595 168.917 488.695 169.717 491.695C170.117 493.295 170.217 493.295 170.317 491.695C170.417 489.195 174.117 489.395 174.917 491.995C175.717 494.395 178.917 497.895 180.417 497.895C181.017 497.895 181.417 498.295 181.417 498.795C181.417 499.295 183.017 500.295 184.917 500.995C186.817 501.695 188.417 502.895 188.417 503.595C188.417 505.195 187.417 505.195 183.817 503.895C182.317 503.295 180.917 503.095 180.717 503.295C180.417 503.595 182.017 504.295 184.317 504.995C186.617 505.695 188.417 506.795 188.417 507.595C188.417 509.395 182.917 509.195 178.417 507.295Z" fill="#1D8039"/>
<path d="M195.417 507.495C195.417 506.695 196.217 505.795 197.217 505.595C198.817 505.195 198.817 505.095 197.217 504.995C196.217 504.995 195.417 504.295 195.417 503.495C195.417 502.195 196.917 501.695 204.917 500.295C207.017 499.895 208.317 498.795 209.417 496.595C210.617 494.095 211.617 493.295 214.317 493.095C217.517 492.795 217.717 492.895 216.417 494.595C215.117 496.195 215.217 496.195 217.217 494.495C219.417 492.595 219.417 492.595 219.417 496.095C219.417 500.095 215.817 503.895 211.917 503.895C210.417 503.895 209.417 504.495 209.417 505.395C209.417 506.995 203.617 508.895 198.717 508.895C196.517 508.895 195.417 508.395 195.417 507.495ZM210.917 500.895C214.817 498.295 213.417 498.295 209.217 500.895C207.417 501.995 206.417 502.895 206.917 502.895C207.517 502.895 209.317 501.995 210.917 500.895Z" fill="#1D8039"/>
<path d="M532.717 508.195C531.417 507.995 530.417 507.095 530.417 506.295C530.417 505.395 529.317 504.895 527.417 504.895C523.217 504.895 517.417 499.195 517.417 494.995C517.417 492.895 516.917 491.895 515.917 491.895C514.917 491.895 514.417 490.895 514.417 488.895C514.417 486.595 514.017 485.895 512.417 485.895C509.017 485.895 503.417 482.695 503.417 480.695C503.417 479.295 502.617 478.895 500.017 478.895C498.117 478.895 495.817 478.195 494.917 477.295C493.417 475.795 493.117 475.795 490.617 477.995C489.217 479.295 487.117 481.395 486.117 482.695C485.117 483.895 483.617 484.895 482.817 484.895C481.717 484.895 481.417 486.595 481.417 492.395C481.417 499.095 481.117 500.295 478.917 502.395C476.817 504.595 475.617 504.895 469.917 504.895C463.417 504.895 463.417 504.895 463.417 501.795C463.417 498.995 463.617 498.795 465.217 499.995C466.617 501.095 466.517 500.995 465.017 499.095C463.117 496.895 463.117 496.895 467.017 496.895C469.117 496.895 471.717 496.195 472.717 495.495C474.517 494.095 475.017 490.895 473.417 490.895C472.317 490.895 472.117 486.695 473.017 483.195C473.417 481.795 474.417 480.895 475.517 480.895C476.617 480.895 477.417 480.295 477.417 479.695C477.417 478.995 478.517 477.295 479.817 475.895C481.217 474.495 483.417 472.095 484.917 470.495C487.417 467.795 487.917 467.695 493.117 468.295C496.117 468.595 499.217 469.595 500.117 470.395C500.917 471.195 502.417 471.895 503.517 471.895C504.517 471.895 505.417 472.595 505.417 473.395C505.417 474.295 506.317 474.895 507.717 474.895C509.017 474.895 511.117 475.795 512.417 476.895C513.717 477.995 515.117 478.895 515.617 478.895C516.017 478.895 516.417 479.595 516.417 480.395C516.417 481.395 517.417 481.895 519.517 481.895C522.717 481.895 522.717 481.895 522.117 486.895C521.617 490.895 521.817 491.895 522.917 491.895C523.717 491.895 526.117 493.695 528.317 495.895C530.417 498.095 533.117 499.895 534.117 499.895C539.917 499.895 545.017 504.095 540.717 505.195C539.017 505.595 539.017 505.695 540.717 505.795C541.617 505.795 542.417 506.595 542.417 507.395C542.417 508.895 538.117 509.195 532.717 508.195ZM520.417 492.395C519.317 490.195 518.417 489.095 518.417 489.795C518.417 491.195 521.617 496.995 522.117 496.595C522.217 496.395 521.517 494.495 520.417 492.395ZM518.417 485.095C518.417 484.595 517.217 483.695 515.717 482.995C512.917 481.795 512.917 481.795 515.417 483.895C518.317 486.095 518.417 486.195 518.417 485.095ZM486.417 475.195C486.417 474.395 485.517 475.195 481.417 479.695C476.917 484.395 476.917 484.395 481.717 479.895C484.317 477.495 486.417 475.395 486.417 475.195ZM506.417 478.395C506.417 478.195 505.117 477.295 503.417 476.395C499.617 474.495 499.417 475.295 503.217 477.295C506.317 478.995 506.417 479.095 506.417 478.395Z" fill="#1D8039"/>
<path d="M547.417 507.495C547.417 506.695 548.217 505.795 549.217 505.595C550.817 505.195 550.817 505.095 549.217 504.995C546.117 504.795 547.217 502.195 550.717 501.495C552.417 501.095 555.117 500.595 556.717 500.195C558.217 499.895 559.417 499.095 559.417 498.395C559.417 497.595 560.017 496.395 560.717 495.695C561.417 494.995 562.617 492.995 563.317 491.195C564.917 487.195 563.317 481.395 560.417 480.595C559.417 480.295 558.217 478.895 557.817 477.495C557.117 474.395 557.817 473.195 559.717 474.495C560.417 474.995 560.217 474.695 559.217 473.695C556.717 471.395 556.917 470.895 560.717 470.895C566.417 470.895 572.417 479.495 572.417 487.595C572.417 496.095 568.117 503.895 563.517 503.895C562.317 503.895 561.417 504.495 561.417 505.395C561.417 506.995 555.617 508.895 550.717 508.895C548.517 508.895 547.417 508.395 547.417 507.495ZM562.117 500.895C563.517 499.795 564.317 498.895 563.917 498.895C563.517 498.895 562.117 499.795 560.717 500.895C559.317 501.995 558.517 502.895 558.917 502.895C559.317 502.895 560.717 501.995 562.117 500.895Z" fill="#1D8039"/>
<path d="M280.217 498.195C279.217 497.995 278.417 497.095 278.417 496.395C278.417 495.595 277.117 494.895 275.217 494.695C272.717 494.495 271.817 493.895 271.617 492.195C271.417 490.695 270.617 489.895 269.317 489.895C268.117 489.895 267.417 489.195 267.417 487.895C267.417 486.795 267.017 485.895 266.417 485.895C265.017 485.895 265.117 473.995 266.517 469.995C267.417 467.495 268.117 466.895 270.517 466.895C273.417 466.895 273.417 466.895 271.717 469.695C269.917 472.595 270.517 472.095 274.417 467.395C275.817 465.695 276.117 465.095 275.117 465.895C273.417 467.195 273.317 466.995 273.617 463.795C273.817 461.195 274.417 460.295 276.217 460.095C277.417 459.895 278.417 459.395 278.417 458.895C278.417 458.395 280.217 457.395 282.417 456.795C285.617 455.795 286.417 455.095 286.417 453.195C286.417 450.895 286.417 450.895 268.117 450.895C250.717 450.895 249.617 450.995 247.817 452.995C244.417 456.795 237.717 459.995 231.917 460.595C227.317 461.095 226.417 460.895 226.417 459.595C226.417 458.795 227.217 457.795 228.217 457.595C229.817 457.195 229.717 457.095 228.117 456.995C224.817 456.795 226.617 453.395 230.217 453.095C231.917 452.895 233.417 452.395 233.417 451.995C233.417 451.495 234.817 450.595 236.417 449.895C238.117 449.195 240.417 447.495 241.717 445.995C243.917 443.395 243.917 443.395 269.217 443.395C294.417 443.395 294.417 443.395 294.417 446.995C294.417 452.595 293.317 456.895 291.817 456.895C291.117 456.895 290.317 456.095 290.117 455.195C289.817 453.995 289.617 454.395 289.517 456.095C289.517 457.495 288.817 458.995 288.217 459.195C287.417 459.495 287.617 459.795 288.717 459.795C290.817 459.895 291.017 462.895 288.917 462.895C288.117 462.895 287.417 463.395 287.417 463.895C287.417 464.495 286.117 464.895 284.417 464.895C282.417 464.895 281.417 465.395 281.417 466.395C281.417 467.395 280.317 467.895 277.917 467.895C274.517 467.895 274.417 467.995 274.417 471.895C274.417 474.095 273.917 475.895 273.317 475.895C272.017 475.895 273.217 482.195 274.517 482.695C275.017 482.895 275.417 483.695 275.417 484.495C275.417 485.295 276.117 485.895 277.017 485.895C277.917 485.895 278.817 486.795 279.117 487.895C279.517 489.295 280.517 489.895 282.517 489.895C284.117 489.895 285.417 490.395 285.417 490.895C285.417 491.495 286.117 491.895 286.917 491.895C289.017 491.895 288.817 494.695 286.717 495.195C285.017 495.595 285.017 495.695 286.717 495.795C287.617 495.795 288.417 496.595 288.417 497.395C288.417 498.895 284.317 499.295 280.217 498.195Z" fill="#1D8039"/>
<path d="M297.417 497.495C297.417 496.695 298.217 495.795 299.217 495.595C300.817 495.195 300.817 495.095 299.217 494.995C298.117 494.895 297.417 494.095 297.417 492.895C297.417 491.295 298.117 490.895 300.417 490.895C302.117 490.895 303.417 490.495 303.417 489.895C303.417 489.395 304.517 488.895 305.717 488.895C307.317 488.895 308.517 487.995 309.217 486.395C309.817 484.995 311.017 483.895 311.917 483.895C312.717 483.895 313.417 482.995 313.417 481.895C313.417 480.195 314.117 479.895 317.417 479.895C321.717 479.895 322.917 481.495 319.217 482.195C316.917 482.595 316.917 482.595 319.217 482.795C322.117 482.895 322.417 486.895 319.417 486.895C318.217 486.895 317.417 487.595 317.417 488.695C317.317 490.795 315.117 493.895 313.517 493.895C312.917 493.895 312.417 494.295 312.417 494.795C312.417 495.995 303.817 498.895 300.217 498.895C298.417 498.895 297.417 498.395 297.417 497.495ZM312.517 489.795C314.117 488.695 315.917 486.795 316.517 485.595C317.417 483.695 317.217 483.695 315.317 485.895C314.217 487.295 312.017 489.195 310.517 490.095C309.117 491.095 308.317 491.895 308.717 491.895C309.217 491.895 310.917 490.995 312.517 489.795Z" fill="#1D8039"/>
<path d="M183.117 494.195C182.717 493.895 182.417 492.095 182.417 490.195C182.417 487.895 182.917 486.895 183.917 486.895C184.717 486.895 185.417 487.495 185.417 488.295C185.417 488.995 186.217 490.295 187.217 490.995C188.717 492.295 188.817 492.195 187.517 490.595C185.417 487.995 187.517 484.195 191.617 482.995C193.417 482.495 194.117 481.995 193.117 481.995C192.117 481.895 190.417 482.395 189.317 482.895C187.717 483.795 187.417 483.595 187.417 482.095C187.417 479.995 190.817 478.895 197.017 478.895C200.717 478.895 201.917 481.395 198.717 482.195C197.017 482.595 197.017 482.695 198.717 482.795C199.617 482.795 200.417 483.495 200.417 484.295C200.417 485.095 201.017 485.895 201.717 486.195C202.617 486.495 202.617 487.095 201.617 488.795C200.917 489.995 200.817 490.895 201.417 490.895C201.917 490.895 202.617 489.795 203.017 488.395C204.017 484.495 206.417 485.295 206.417 489.395C206.417 492.695 206.217 492.895 203.117 492.895C200.117 492.895 199.817 492.595 199.617 489.695C199.417 487.895 199.217 486.295 199.017 486.095C198.817 485.895 196.417 486.095 193.717 486.495C191.117 486.895 189.717 487.495 190.717 487.695C191.617 487.895 192.417 488.895 192.417 489.895C192.417 490.895 191.617 491.995 190.717 492.195C189.017 492.595 189.017 492.695 190.717 492.795C191.617 492.795 192.417 493.395 192.417 493.895C192.417 494.995 184.117 495.295 183.117 494.195Z" fill="#1D8039"/>
<path d="M544.417 493.895C544.417 493.395 545.317 492.895 546.317 492.895C547.317 492.895 549.217 492.095 550.417 491.095C553.317 488.695 552.517 484.695 548.917 483.095C544.917 481.295 544.517 481.695 548.217 483.895C551.817 486.095 552.417 489.295 549.517 490.895C546.517 492.495 544.417 492.095 544.417 489.995C544.417 488.695 545.217 487.895 546.717 487.595C548.817 487.295 548.717 487.195 546.217 486.495C542.617 485.495 538.417 486.495 538.417 488.395C538.417 490.395 536.717 490.295 535.517 488.195C534.917 487.095 534.917 485.695 535.517 484.395C536.517 482.495 536.517 482.495 535.017 484.295C533.917 485.695 533.717 486.695 534.517 487.995C535.317 489.595 535.117 489.895 533.417 489.895C531.817 489.895 531.417 489.295 531.417 486.395C531.417 484.495 531.917 482.895 532.417 482.895C533.017 482.895 533.417 481.995 533.417 480.995C533.417 478.495 535.317 477.895 542.517 477.895C552.317 477.895 555.417 480.395 555.417 488.195C555.417 493.495 555.317 493.695 552.317 494.295C547.717 495.195 544.417 494.995 544.417 493.895Z" fill="#1D8039"/>
<path d="M456.617 486.195C456.917 481.695 457.617 478.295 458.317 478.095C458.917 477.895 459.417 477.095 459.417 476.295C459.417 475.495 459.917 474.895 460.417 474.895C461.017 474.895 461.417 474.295 461.417 473.595C461.417 471.195 467.817 465.895 470.917 465.795C473.917 465.695 473.917 465.695 471.217 464.695C469.617 464.195 468.417 463.295 468.417 462.795C468.417 462.295 467.117 461.895 465.417 461.895C463.117 461.895 462.417 462.295 462.417 463.895C462.417 465.395 461.717 465.895 459.517 465.895C457.917 465.895 456.417 466.495 456.217 467.195C455.817 468.095 452.217 468.395 442.417 468.395C432.617 468.395 429.017 468.095 428.717 467.195C428.417 466.495 427.217 465.895 425.917 465.895C422.817 465.895 418.417 463.895 418.417 462.495C418.417 461.895 416.917 460.695 415.217 459.795C413.517 458.995 411.617 457.395 411.017 456.395C410.417 455.295 409.417 453.895 408.717 453.195C408.117 452.495 407.217 449.895 406.817 447.395C406.517 444.895 405.817 442.895 405.317 442.895C404.817 442.895 404.417 439.995 404.417 436.395C404.417 432.695 404.017 429.895 403.417 429.895C402.917 429.895 402.417 429.195 402.417 428.395C402.417 427.595 401.717 426.895 400.917 426.895C398.017 426.895 399.417 424.095 402.717 423.295C404.417 422.895 406.217 422.595 406.617 422.695C406.917 422.795 407.817 422.195 408.417 421.395C410.417 418.895 411.417 419.695 411.417 423.695C411.417 425.695 412.317 432.395 413.417 438.395C414.517 444.495 415.417 449.495 415.417 449.695C415.417 449.795 416.017 449.895 416.817 449.895C417.617 449.895 419.417 451.295 420.717 452.895C422.117 454.595 423.717 455.895 424.317 455.895C424.917 455.895 425.417 456.395 425.417 456.895C425.417 457.495 426.317 457.895 427.317 457.895C428.417 457.895 429.417 458.395 429.617 458.995C430.117 460.395 445.417 460.795 455.917 459.695C462.917 458.895 462.917 458.895 457.917 461.395C455.217 462.795 453.517 463.895 454.317 463.895C455.017 463.895 458.217 462.495 461.417 460.795C464.817 458.995 467.817 457.995 468.617 458.395C469.717 459.095 469.717 458.895 468.617 457.795C467.617 456.695 467.017 456.695 465.417 457.695C462.717 459.295 462.417 459.195 462.417 456.895C462.417 455.095 463.117 454.895 467.917 454.895C470.917 454.895 473.417 455.395 473.417 455.895C473.417 456.495 474.317 456.895 475.417 456.895C476.517 456.895 477.417 457.595 477.417 458.395C477.417 459.195 478.117 459.895 478.917 459.895C479.917 459.895 480.417 460.995 480.417 463.395C480.417 466.595 480.117 466.895 477.717 466.895C474.917 466.795 474.917 466.795 477.117 464.995C479.317 463.195 479.317 463.195 476.617 462.095C474.417 461.095 474.217 461.195 475.617 462.095C477.217 463.295 477.017 463.795 473.117 467.895C470.817 470.295 470.117 471.295 471.717 469.995C474.417 467.595 474.417 467.595 474.417 469.795C474.417 472.695 471.017 477.595 468.417 478.395C467.317 478.795 466.417 479.695 466.417 480.495C466.417 481.295 466.017 481.895 465.417 481.895C464.817 481.895 464.417 484.595 464.417 487.895C464.417 492.395 464.117 493.895 463.017 493.895C462.217 493.895 461.317 493.095 461.117 492.195C460.717 490.495 460.617 490.495 460.517 492.195C460.417 493.195 459.617 493.895 458.317 493.895C456.217 493.895 456.217 493.495 456.617 486.195ZM462.917 479.695C463.217 478.995 462.817 479.295 462.017 480.295C461.117 481.395 460.417 483.195 460.517 484.295C460.617 485.995 460.717 485.895 461.417 483.695C461.817 482.295 462.517 480.495 462.917 479.695ZM412.717 449.395C411.817 447.495 410.917 446.095 410.617 446.295C410.217 446.795 413.217 452.895 413.917 452.895C414.217 452.895 413.617 451.295 412.717 449.395Z" fill="#1D8039"/>
<path d="M216.417 487.895C216.417 485.695 216.017 483.895 215.417 483.895C214.917 483.895 214.417 483.195 214.417 482.395C214.417 481.595 214.117 480.895 213.717 480.895C213.217 480.895 211.017 479.095 208.617 476.895C204.717 473.295 203.817 472.895 198.917 472.895C192.417 472.895 184.217 474.795 183.117 476.595C182.717 477.295 181.717 477.895 181.017 477.895C180.217 477.895 179.117 478.595 178.417 479.395C177.717 480.195 176.317 480.895 175.317 480.895C173.817 480.895 173.417 481.595 173.417 484.395C173.417 488.095 170.917 489.395 170.117 486.195C169.717 484.495 169.617 484.495 169.517 486.195C169.517 487.095 168.717 487.895 167.917 487.895C166.917 487.895 166.417 486.795 166.417 484.395C166.417 481.595 166.817 480.895 168.317 480.895C169.917 480.895 170.317 480.095 170.617 477.195C170.817 474.395 171.517 473.095 173.217 472.395C174.417 471.895 175.417 471.095 175.417 470.695C175.417 470.195 176.817 469.895 178.417 469.895C180.417 469.895 181.417 469.395 181.417 468.395C181.417 467.295 182.617 466.895 186.417 466.895C190.217 466.895 191.417 466.495 191.417 465.395C191.417 464.295 192.617 463.895 195.817 463.895C198.317 463.895 200.617 464.395 200.917 464.895C201.217 465.495 202.617 465.895 204.017 465.895C205.317 465.895 206.417 466.395 206.417 466.895C206.417 467.495 207.717 467.895 209.317 467.895C212.517 467.895 218.217 471.395 219.817 474.395C220.417 475.495 221.317 476.695 221.917 477.095C222.417 477.495 223.017 480.995 223.217 484.795C223.617 491.395 223.517 491.895 221.617 491.895C220.517 491.895 219.317 491.095 219.117 490.195C218.717 488.495 218.617 488.495 218.517 490.195C218.317 493.695 216.417 491.695 216.417 487.895ZM175.317 477.395C176.717 475.695 176.217 475.995 174.217 478.095C172.117 480.095 170.417 482.395 170.417 483.095C170.417 483.795 171.017 483.495 171.617 482.395C172.217 481.295 173.817 478.995 175.317 477.395Z" fill="#1D8039"/>
<path d="M286.417 484.895C286.417 484.395 285.517 483.895 284.517 483.895C282.317 483.895 281.417 481.995 281.417 477.295C281.417 475.095 281.917 473.895 282.817 473.895C283.617 473.895 284.517 472.795 284.817 471.495C285.517 468.695 287.817 467.895 295.617 467.895C302.617 467.895 305.417 469.795 305.417 474.595C305.417 476.395 305.017 477.895 304.417 477.895C303.917 477.895 303.417 477.095 303.417 476.095C303.417 474.095 301.617 471.895 300.017 471.895C299.417 471.895 299.717 472.395 300.717 472.995C303.117 474.395 302.917 477.895 300.517 477.895C299.417 477.895 298.217 477.495 297.917 476.895C297.617 476.395 296.017 475.895 294.317 475.895C292.717 475.895 291.417 476.395 291.417 476.895C291.417 477.495 291.917 477.895 292.417 477.895C294.117 477.895 293.517 481.695 291.717 482.195C290.017 482.595 290.017 482.695 291.717 482.795C292.617 482.795 293.417 483.595 293.417 484.395C293.417 485.395 292.317 485.895 289.917 485.895C288.017 485.895 286.417 485.495 286.417 484.895Z" fill="#1D8039"/>
<path d="M294.417 484.595C294.417 483.795 296.017 482.795 297.917 482.195C301.217 481.095 301.417 481.195 301.417 483.495C301.417 485.595 300.917 485.895 297.917 485.895C295.717 485.895 294.417 485.395 294.417 484.595Z" fill="#1D8039"/>
<path d="M373.417 484.595C373.417 483.695 374.217 482.795 375.217 482.595C376.817 482.195 376.817 482.095 375.217 481.995C373.317 481.895 372.617 478.895 374.417 478.895C374.917 478.895 376.317 478.095 377.417 477.195C379.217 475.595 379.417 474.195 379.417 461.695C379.417 450.395 379.717 447.895 380.817 447.895C381.617 447.895 382.517 448.695 382.717 449.695C383.117 451.295 383.217 451.295 383.317 449.695C383.317 448.695 384.117 447.895 384.917 447.895C386.217 447.895 386.417 450.395 386.417 464.195C386.417 479.095 386.217 480.795 384.417 482.895C381.917 485.695 373.417 487.095 373.417 484.595Z" fill="#1D8039"/>
<path d="M294.417 480.495C294.417 479.295 295.417 478.895 298.117 478.895C302.217 478.895 301.717 480.295 297.217 481.395C295.017 481.995 294.417 481.795 294.417 480.495Z" fill="#1D8039"/>
<path d="M519.417 475.895C519.417 475.395 518.817 474.895 518.017 474.895C517.217 474.895 515.917 474.195 515.117 473.395C514.317 472.595 511.817 471.195 509.517 470.295C506.717 469.195 505.417 468.095 505.417 466.795C505.417 465.295 504.717 464.895 501.917 464.895C498.817 464.895 498.417 464.595 498.417 462.295C498.417 460.395 498.817 459.795 499.917 460.295C502.517 461.295 501.517 459.995 498.417 458.395C494.717 456.495 493.417 456.495 496.017 458.395C497.817 459.795 497.717 459.795 494.817 459.895C489.317 459.895 485.417 457.995 485.417 455.195C485.417 453.195 485.817 452.795 487.217 453.295C488.617 453.795 488.517 453.595 486.917 452.295C485.517 451.195 485.317 450.495 486.217 450.195C487.917 449.495 487.717 445.895 485.917 445.895C484.917 445.895 484.417 444.795 484.417 442.395C484.417 438.695 486.917 437.395 487.717 440.695C488.117 442.295 488.217 442.295 488.317 440.695C488.417 439.595 489.217 438.895 490.417 438.895C491.917 438.895 492.417 439.595 492.417 441.295C492.417 442.895 493.117 443.995 494.417 444.395C495.517 444.695 496.717 446.095 497.017 447.395C497.617 449.695 498.517 450.095 507.217 451.595C510.717 452.195 511.817 455.395 508.717 456.195C507.017 456.595 507.017 456.695 508.717 456.795C511.517 456.995 510.717 459.695 507.717 460.195C505.117 460.595 505.217 460.595 508.217 460.795C511.317 460.895 515.217 462.295 516.417 463.795C516.717 464.095 518.417 465.195 520.217 466.195C524.017 468.095 528.117 468.395 528.617 466.795C529.217 465.095 545.317 464.395 551.317 465.895C555.717 466.895 556.417 467.395 556.417 469.495C556.417 471.295 556.017 471.695 554.717 471.295C553.017 470.795 553.017 470.795 554.717 471.895C558.017 473.995 556.617 475.195 551.717 474.495C538.517 472.595 537.717 472.695 531.517 474.795C525.017 476.995 519.417 477.595 519.417 475.895ZM508.417 464.395C508.417 464.195 507.117 463.295 505.417 462.395C501.617 460.495 501.417 461.295 505.217 463.295C508.317 464.995 508.417 465.095 508.417 464.395Z" fill="#1D8039"/>
<path d="M311.917 469.495C311.017 468.195 309.217 466.795 307.817 466.495C306.517 466.095 305.417 465.395 305.417 464.895C305.417 464.295 304.717 463.895 303.917 463.895C302.317 463.895 302.017 460.995 303.017 454.695C303.717 450.795 305.917 449.595 306.717 452.695C307.117 454.295 307.217 454.295 307.317 452.695C307.317 451.695 308.117 450.895 308.917 450.895C310.017 450.895 310.417 451.995 310.417 454.895C310.417 458.195 310.717 458.895 312.417 458.895C313.517 458.895 314.417 459.395 314.417 459.895C314.417 460.495 314.917 460.895 315.517 460.895C317.117 460.895 320.317 465.095 320.417 467.195C320.417 468.995 318.917 469.495 317.917 467.895C317.617 467.395 315.917 465.995 314.117 464.795C311.217 462.795 311.317 462.995 314.817 466.195C316.917 468.295 319.017 469.895 319.517 469.895C320.017 469.895 320.417 470.395 320.417 470.895C320.417 471.495 318.817 471.895 316.917 471.895C314.417 471.895 313.017 471.295 311.917 469.495Z" fill="#1D8039"/>
<path d="M362.417 455.895C362.417 445.295 362.717 442.895 363.817 442.895C364.617 442.895 365.517 443.695 365.717 444.695C366.117 446.295 366.217 446.295 366.317 444.695C366.317 443.695 367.117 442.895 367.917 442.895C369.217 442.895 369.417 444.995 369.417 455.895C369.417 466.495 369.117 468.895 368.017 468.895C367.217 468.895 366.317 468.095 366.117 467.195C365.717 465.495 365.617 465.495 365.517 467.195C365.517 468.095 364.717 468.895 363.917 468.895C362.617 468.895 362.417 466.795 362.417 455.895Z" fill="#1D8039"/>
<path d="M212.917 459.995C212.617 459.395 211.217 458.895 209.917 458.895C206.317 458.895 204.417 457.895 204.417 455.795C204.417 454.395 203.717 453.895 201.917 453.895C200.317 453.895 199.417 453.295 199.417 452.395C199.417 451.595 199.017 450.895 198.517 450.895C197.017 450.895 195.417 444.895 195.417 439.295C195.417 436.295 195.917 433.895 196.417 433.895C197.017 433.895 197.417 433.195 197.417 432.395C197.417 431.495 198.317 430.895 199.517 430.895C201.117 430.895 201.517 431.295 201.017 432.695C200.617 433.695 201.217 433.395 202.317 431.895C203.417 430.495 205.517 428.295 207.117 426.995C208.617 425.695 209.217 424.995 208.417 425.395C207.617 425.895 206.117 426.895 205.217 427.695C203.517 429.095 203.417 428.995 203.417 426.595C203.417 424.895 203.917 423.895 204.917 423.895C205.717 423.895 206.417 423.195 206.417 422.395C206.417 421.395 207.517 420.895 209.917 420.895C212.717 420.895 213.417 420.495 213.417 418.895C213.417 417.295 214.117 416.895 216.817 416.895C218.717 416.895 220.917 417.195 221.817 417.495C223.917 418.295 223.817 420.595 221.717 421.195C220.017 421.595 220.017 421.695 221.717 421.795C222.717 421.895 223.417 422.695 223.417 423.995C223.417 425.895 222.917 426.095 218.417 425.695C214.217 425.495 213.417 425.695 213.417 427.195C213.417 428.095 212.717 428.895 211.917 428.895C211.117 428.895 210.417 429.395 210.417 429.895C210.417 430.495 209.117 430.895 207.417 430.895C204.717 430.895 204.417 431.195 204.417 433.795C204.417 435.395 204.017 437.895 203.517 439.295C202.817 441.095 202.917 442.095 203.917 442.895C204.717 443.595 205.617 445.595 206.017 447.495C206.517 450.095 207.117 450.895 208.717 450.895C209.917 450.895 213.217 451.495 216.117 452.095C219.917 452.995 221.417 453.795 221.417 455.095C221.417 455.995 220.417 456.895 219.217 457.195C216.917 457.595 216.917 457.595 219.217 457.795C220.617 457.795 221.417 458.395 221.217 459.195C220.617 460.695 213.817 461.395 212.917 459.995ZM208.917 454.095C208.317 453.695 206.517 452.295 204.917 450.895C202.017 448.495 202.017 448.595 205.117 451.695C206.917 453.395 208.717 454.895 209.117 454.895C209.517 454.895 209.417 454.595 208.917 454.095ZM217.417 422.095C217.717 421.795 216.617 421.895 214.917 422.295C213.317 422.695 211.517 423.495 210.917 423.995C210.417 424.495 211.517 424.395 213.417 423.795C215.317 423.095 217.117 422.395 217.417 422.095Z" fill="#1D8039"/>
<path d="M518.417 458.495C518.417 457.795 519.917 456.695 521.717 456.095C524.917 454.995 524.917 454.995 521.717 455.495C519.117 455.895 518.417 455.695 518.417 454.495C518.417 453.595 519.117 452.895 519.917 452.895C520.717 452.895 521.417 452.495 521.417 451.895C521.417 451.395 522.217 450.895 523.317 450.895C524.317 450.895 525.717 450.195 526.417 449.395C527.117 448.595 528.517 447.895 529.517 447.895C530.717 447.895 531.417 447.195 531.417 445.895C531.417 444.795 532.117 443.895 532.917 443.895C534.017 443.895 534.417 442.695 534.417 438.895C534.417 434.695 534.117 433.895 532.517 433.895C531.517 433.895 529.917 432.795 529.017 431.395C526.317 427.195 527.417 423.795 530.417 427.395C531.117 428.195 532.117 428.895 532.817 428.895C533.417 428.895 532.417 427.895 530.717 426.695C526.617 423.795 526.617 422.895 530.517 422.895C534.517 422.895 538.417 426.495 538.417 430.195C538.417 431.895 538.917 432.895 539.917 432.895C541.117 432.895 541.417 434.295 541.417 439.895C541.417 445.495 541.117 446.895 539.917 446.895C539.117 446.895 538.417 447.795 538.417 448.895C538.417 450.195 537.717 450.895 536.417 450.895C535.017 450.895 534.417 451.595 534.417 453.295C534.417 455.195 533.417 456.095 529.517 457.795C523.817 460.195 518.417 460.595 518.417 458.495ZM537.417 444.595C537.417 443.995 536.817 444.295 536.217 445.395C535.617 446.495 534.417 448.295 533.517 449.395C532.617 450.595 533.117 450.195 534.717 448.695C536.217 447.095 537.417 445.295 537.417 444.595Z" fill="#1D8039"/>
<path d="M436.417 454.095C436.417 452.795 437.217 451.895 438.717 451.595C440.917 451.195 440.917 451.195 438.617 450.995C433.917 450.795 437.017 448.395 442.517 448.095C445.417 447.895 448.117 447.395 448.417 446.995C449.417 445.295 455.417 442.895 458.417 442.895C461.717 442.895 462.717 445.395 459.717 446.195C458.017 446.595 458.017 446.695 459.717 446.795C460.617 446.795 461.417 447.695 461.417 448.695C461.417 449.995 460.217 450.995 457.217 451.895C454.817 452.595 452.617 453.595 452.317 454.195C451.917 454.695 448.217 455.395 444.017 455.695C436.817 456.095 436.417 455.995 436.417 454.095Z" fill="#1D8039"/>
<path d="M474.417 450.995C474.417 450.495 473.217 449.895 471.717 449.695C468.517 449.395 467.317 446.295 470.117 445.595C471.817 445.195 471.817 445.095 470.217 444.995C469.217 444.995 468.417 444.195 468.417 443.395C468.417 441.695 474.917 441.195 475.917 442.895C476.217 443.495 477.617 443.895 479.017 443.895C480.917 443.895 481.417 444.395 481.417 446.495C481.417 448.595 481.017 448.995 479.717 448.495C478.017 447.895 478.017 447.995 479.717 449.295C482.217 451.295 481.817 451.895 477.917 451.895C476.017 451.895 474.417 451.495 474.417 450.995Z" fill="#1D8039"/>
<path d="M423.017 447.595C422.717 446.295 422.217 442.695 421.817 439.595C421.217 434.795 421.417 433.895 422.717 433.895C423.517 433.895 424.517 434.695 424.717 435.695C425.117 437.295 425.217 437.295 425.317 435.695C425.417 434.695 426.217 433.895 427.317 433.895C428.717 433.895 429.317 434.895 429.817 438.495C430.117 441.095 430.417 444.295 430.417 445.695C430.417 448.195 430.417 448.195 428.317 446.295C426.117 444.395 426.117 444.395 427.217 446.595C427.917 447.795 428.917 448.995 429.617 449.195C430.317 449.495 429.317 449.795 427.317 449.795C424.317 449.895 423.517 449.495 423.017 447.595Z" fill="#1D8039"/>
<path d="M303.417 444.595C303.417 442.195 302.917 439.795 302.217 439.095C301.317 438.195 293.417 437.895 272.717 437.895C245.817 437.895 244.417 437.795 243.417 435.995C242.917 434.895 242.417 433.095 242.417 431.995C242.417 430.395 241.817 429.895 239.917 429.895C238.317 429.895 237.417 429.295 237.417 428.395C237.417 427.395 236.417 426.895 234.417 426.895C232.817 426.895 231.417 426.495 231.417 425.895C231.417 425.395 230.317 424.895 228.917 424.895C226.017 424.895 225.417 422.295 228.217 421.595C229.817 421.195 229.817 421.095 228.217 420.995C227.217 420.995 226.417 420.195 226.417 419.295C226.417 417.895 227.217 417.695 231.817 418.295C238.617 419.095 240.417 419.695 240.417 421.495C240.417 422.295 241.317 422.895 242.417 422.895C243.917 422.895 244.417 423.595 244.417 425.495C244.417 427.995 244.417 427.995 241.817 425.995C240.317 424.795 238.617 423.895 238.017 423.895C237.417 423.895 237.817 424.495 238.917 425.095C240.017 425.695 242.217 427.295 243.917 428.795C245.517 430.195 246.217 430.595 245.517 429.695C244.317 428.095 244.517 427.895 247.317 427.895C249.017 427.895 250.417 428.395 250.417 428.995C250.417 429.795 258.317 429.995 277.217 429.795C305.017 429.595 308.317 429.995 310.317 433.795C312.317 437.495 311.217 448.895 308.817 448.895C308.117 448.895 307.317 448.095 307.117 447.195C306.717 445.495 306.617 445.495 306.517 447.195C306.517 448.095 305.717 448.895 304.917 448.895C303.817 448.895 303.417 447.795 303.417 444.595Z" fill="#1D8039"/>
<path d="M214.717 447.095C213.917 446.595 213.317 443.595 213.217 439.795C212.917 433.795 213.117 433.395 215.217 433.095C216.417 432.895 217.417 432.295 217.417 431.795C217.417 431.295 219.217 430.895 221.417 430.895C225.617 430.895 227.217 433.295 223.717 434.195C222.017 434.595 222.117 434.695 223.717 434.795C226.317 434.995 225.417 438.295 222.617 438.695C220.517 438.995 219.417 440.895 221.417 440.895C223.117 440.895 222.517 443.695 220.717 444.195C219.017 444.595 219.017 444.695 220.717 444.795C221.617 444.795 222.417 445.595 222.417 446.395C222.417 447.995 216.917 448.495 214.717 447.095ZM217.617 442.695C215.717 440.795 216.217 438.195 218.617 436.495C219.817 435.595 220.417 434.895 220.017 434.895C216.617 434.895 213.817 442.095 216.717 443.195C218.717 444.095 218.917 443.995 217.617 442.695Z" fill="#1D8039"/>
<path d="M224.417 446.495C224.417 445.695 225.217 444.795 226.217 444.595C227.817 444.195 227.817 444.095 226.217 443.995C223.617 443.795 223.817 439.895 226.417 439.895C227.517 439.895 228.417 439.195 228.417 438.395C228.417 436.395 231.317 436.495 232.117 438.595C232.517 439.595 231.917 440.895 230.517 442.095C229.217 443.095 228.617 443.895 229.117 443.895C230.917 443.895 233.717 439.995 233.117 438.395C232.717 437.495 233.017 436.895 233.917 436.895C235.017 436.895 235.417 438.095 235.417 441.395C235.417 445.195 235.117 445.895 233.417 445.895C232.317 445.895 231.417 446.395 231.417 446.895C231.417 447.495 229.817 447.895 227.917 447.895C225.517 447.895 224.417 447.395 224.417 446.495Z" fill="#1D8039"/>
<path d="M506.217 447.195C505.217 446.995 504.417 446.295 504.417 445.795C504.417 445.295 503.817 444.895 503.017 444.895C500.017 444.895 499.517 438.595 502.117 433.995C504.117 430.595 505.917 429.895 512.417 429.895C518.917 429.895 521.317 430.795 522.017 433.495C522.317 434.795 523.217 435.895 524.017 435.895C524.917 435.895 525.417 437.095 525.417 439.395C525.417 442.495 525.117 442.895 522.917 442.895C521.017 442.895 520.617 442.495 521.017 441.195C521.417 439.995 521.317 439.795 520.717 440.595C520.217 441.295 518.717 442.295 517.417 442.895C515.117 443.895 515.117 443.895 517.217 443.495C519.017 443.195 519.417 443.495 519.417 445.495C519.417 447.795 519.117 447.895 513.717 447.795C510.517 447.695 507.117 447.495 506.217 447.195ZM505.917 440.495C504.517 438.295 504.517 437.995 505.917 436.495C506.817 435.595 507.117 434.895 506.517 434.895C504.417 434.895 503.417 438.495 505.017 440.695C507.117 443.695 507.817 443.495 505.917 440.495ZM514.417 438.895C513.617 438.395 512.017 437.895 510.917 437.895C509.217 437.895 509.217 438.095 510.417 438.895C511.217 439.395 512.817 439.895 513.917 439.895C515.617 439.895 515.617 439.695 514.417 438.895Z" fill="#1D8039"/>
<path d="M484.417 434.495C484.417 432.595 485.017 430.395 485.717 429.695C486.417 428.995 487.317 427.595 487.717 426.595C488.217 425.195 489.317 424.895 492.117 425.095C495.617 425.395 495.917 425.695 496.217 428.695C496.417 430.595 496.117 431.895 495.417 431.895C494.817 431.895 493.817 433.295 493.317 434.895C492.117 438.195 488.817 438.995 488.117 436.195C487.717 434.495 487.617 434.495 487.517 436.195C487.517 437.095 486.717 437.895 485.917 437.895C484.917 437.895 484.417 436.895 484.417 434.495Z" fill="#1D8039"/>
<path d="M497.417 425.895C497.417 425.395 498.217 424.495 499.217 423.895C500.817 422.795 500.817 422.795 499.217 423.295C497.817 423.695 497.417 423.295 497.417 421.395C497.417 419.195 497.817 418.895 500.917 418.895C504.617 418.895 505.917 421.395 502.717 422.195C501.017 422.595 501.017 422.695 502.717 422.795C503.717 422.895 504.417 423.695 504.417 424.895C504.417 426.495 503.717 426.895 500.917 426.895C499.017 426.895 497.417 426.495 497.417 425.895Z" fill="#1D8039"/>
<path d="M519.417 422.395C519.417 419.095 519.617 418.895 522.917 418.895C526.017 418.895 526.417 419.195 526.417 421.395C526.417 423.295 526.017 423.695 524.717 423.195C523.217 422.695 523.317 422.895 524.917 424.195C526.817 425.795 526.817 425.795 523.217 425.895C519.517 425.895 519.417 425.795 519.417 422.395Z" fill="#1D8039"/>
<path d="M507.417 423.395C507.417 422.595 508.017 421.895 508.717 421.895C509.517 421.895 509.417 421.495 508.417 420.895C506.117 419.395 508.517 416.495 512.317 416.095C517.217 415.595 521.017 420.095 516.717 421.195C515.017 421.595 515.017 421.695 516.717 421.795C517.617 421.795 518.417 422.595 518.417 423.395C518.417 424.595 517.117 424.895 512.917 424.895C508.717 424.895 507.417 424.595 507.417 423.395Z" fill="#1D8039"/>
<path d="M503.417 49.995C503.417 45.895 503.417 45.895 507.517 45.895C511.517 45.895 511.517 45.895 511.217 49.695C510.917 53.195 510.717 53.395 507.217 53.695C503.417 53.995 503.417 53.995 503.417 49.995Z" fill="#1D8039"/>
<path d="M367.917 544.895C155.917 544.395 155.917 544.395 368.717 544.095C510.417 543.995 581.317 544.195 580.917 544.895C580.617 545.495 580.217 545.795 580.117 545.695C580.017 545.495 484.517 545.195 367.917 544.895Z" fill="#29963C"/>
<path d="M582.417 543.395C582.417 542.595 583.117 541.895 583.917 541.895C584.717 541.895 585.417 542.295 585.417 542.795C585.417 543.295 584.717 543.895 583.917 544.295C583.017 544.595 582.417 544.295 582.417 543.395Z" fill="#29963C"/>
<path d="M162.617 531.395C163.317 530.695 532.617 530.695 533.217 531.395C533.517 531.695 450.117 531.895 347.917 531.895C245.717 531.895 162.317 531.695 162.617 531.395Z" fill="#29963C"/>
<path d="M545.717 531.195C551.617 530.995 561.217 530.995 567.217 531.195C573.117 531.295 568.217 531.495 556.417 531.495C544.617 531.495 539.717 531.295 545.717 531.195Z" fill="#29963C"/>
<path d="M597.217 525.895C596.917 524.095 597.317 522.395 598.017 521.795C599.117 520.895 599.217 521.495 598.817 524.495C598.217 529.295 597.817 529.795 597.217 525.895Z" fill="#29963C"/>
<path d="M140.417 522.495C140.417 520.695 140.517 520.595 142.417 522.395C143.517 523.395 144.417 524.295 144.417 524.495C144.417 524.595 143.517 524.695 142.417 524.595C141.117 524.495 140.417 523.795 140.417 522.495Z" fill="#29963C"/>
<path d="M157.917 515.995C148.317 513.595 141.417 505.495 141.417 496.595C141.417 495.595 147.017 484.295 153.817 471.595C160.617 458.795 171.717 437.795 178.417 424.895C195.417 392.395 205.317 373.895 207.717 370.495C208.817 368.995 211.517 366.795 213.817 365.795C217.517 364.095 220.817 363.895 249.417 363.895C280.917 363.895 280.917 363.895 275.917 366.895C273.217 368.495 263.417 372.795 254.217 376.495C236.517 383.395 232.417 386.295 232.417 391.495C232.417 399.495 243.517 408.495 263.017 416.195C281.817 423.695 307.917 426.095 326.017 421.995C334.217 420.195 334.217 420.195 341.117 422.395C345.017 423.695 350.817 424.995 354.017 425.395C366.717 426.795 365.417 424.195 365.417 447.995C365.417 468.895 365.417 468.895 342.117 468.895C318.717 468.895 318.717 468.895 316.517 466.495C315.217 465.095 312.617 463.295 310.717 462.395C307.217 460.695 307.217 460.695 307.517 449.095C307.717 442.595 307.517 436.795 307.017 436.095C305.217 433.295 300.417 432.795 274.717 432.895C248.417 432.995 248.417 432.995 245.217 429.395C241.917 425.495 235.617 421.895 232.717 421.995C231.717 421.995 232.617 422.695 234.717 423.395C240.017 425.395 244.217 428.495 245.917 431.995C247.517 434.895 247.517 434.895 275.517 434.895C296.217 434.795 304.017 435.095 305.117 435.995C306.217 436.995 306.517 439.695 306.317 449.195C306.117 461.195 306.117 461.195 309.517 462.895C311.417 463.895 314.017 465.895 315.317 467.295C317.717 469.895 317.717 469.895 342.117 469.895C366.417 469.895 366.417 469.895 366.617 449.695C366.617 438.495 366.617 428.595 366.517 427.495C366.417 426.095 366.917 425.795 368.617 426.295C369.917 426.595 371.217 426.895 371.717 426.895C372.817 426.895 372.517 429.895 371.417 429.895C370.817 429.895 370.417 437.595 370.417 451.195C370.417 472.395 370.417 472.395 343.217 471.995C316.017 471.695 316.017 471.695 312.017 468.295C309.517 466.195 307.017 464.895 305.217 464.895C302.417 464.895 302.417 464.895 302.417 456.895C302.417 452.195 302.817 448.895 303.417 448.895C305.017 448.895 304.617 439.295 302.917 437.895C300.817 436.195 292.417 435.295 292.417 436.795C292.417 437.395 290.817 437.895 288.917 437.895C287.017 437.895 285.417 437.495 285.417 436.895C285.417 436.295 278.017 435.895 265.317 435.895C245.217 435.895 245.217 435.895 243.217 433.395C242.117 431.995 240.617 430.895 239.817 430.895C239.017 430.895 238.417 430.495 238.417 429.995C238.417 429.495 235.717 428.295 232.417 427.295C229.117 426.195 226.417 425.095 226.417 424.695C226.417 423.295 219.417 423.895 218.817 425.295C218.517 426.095 216.317 427.195 213.817 427.795C211.117 428.495 209.417 429.495 209.417 430.395C209.417 431.195 208.017 432.895 206.317 434.095C203.517 436.195 203.317 436.795 203.717 440.295C204.017 442.395 204.717 444.495 205.117 444.795C205.617 445.095 206.317 446.195 206.717 447.195C207.017 448.095 208.017 448.895 208.917 448.895C209.717 448.895 210.417 449.395 210.417 449.895C210.417 450.495 211.317 450.895 212.317 450.895C213.317 450.895 214.417 451.495 214.717 452.295C215.417 453.995 224.317 455.595 225.317 454.195C225.617 453.595 227.017 452.895 228.417 452.595C236.017 450.795 237.417 450.195 239.417 447.695C240.617 446.095 242.217 444.895 243.017 444.895C243.817 444.895 244.417 444.495 244.417 443.895C244.417 443.295 253.217 442.895 268.817 442.895C293.217 442.895 293.217 442.895 293.817 445.995C294.717 450.695 294.517 454.895 293.417 454.895C292.917 454.895 292.417 456.195 292.417 457.795C292.417 462.495 291.417 463.895 288.317 463.895C286.717 463.895 285.417 464.295 285.417 464.895C285.417 465.395 284.317 466.095 283.017 466.495C281.617 466.795 280.317 467.695 280.017 468.495C279.717 469.295 278.817 469.895 277.917 469.895C277.117 469.895 276.417 470.595 276.417 471.395C276.417 472.195 275.717 472.895 274.817 472.895C273.417 472.895 273.217 473.795 273.617 477.995C274.017 481.395 274.717 483.495 275.817 484.095C276.717 484.595 277.417 485.695 277.417 486.395C277.417 487.195 278.317 487.895 279.317 487.895C280.417 487.895 281.917 488.595 282.817 489.395C283.617 490.195 285.417 490.895 286.817 490.895C288.217 490.895 289.417 491.395 289.417 491.895C289.417 492.495 290.817 492.895 292.417 492.895C294.117 492.895 295.417 492.495 295.417 491.995C295.417 491.495 297.817 490.795 300.717 490.395C306.517 489.595 312.417 485.895 312.417 482.995C312.417 481.895 313.417 480.895 314.717 480.495C315.917 480.195 329.417 479.895 344.717 479.895C362.517 479.895 372.417 479.495 372.417 478.895C372.417 478.395 373.817 477.895 375.517 477.895C378.517 477.895 378.517 477.895 378.217 452.395C378.017 438.395 378.117 426.895 378.417 426.895C386.717 426.095 391.317 425.495 397.817 424.295C407.417 422.595 406.717 422.595 406.017 424.595C405.617 425.495 405.817 426.495 406.417 426.895C406.917 427.195 407.517 430.295 407.617 433.695C407.817 437.095 408.217 439.895 408.517 439.895C408.917 439.895 409.517 441.895 409.817 444.295C412.617 462.595 440.817 471.695 461.517 460.895C467.117 457.995 467.117 457.995 471.517 460.295C473.917 461.595 476.017 463.095 476.117 463.595C476.317 464.195 474.217 466.595 471.417 468.895C459.017 479.295 456.417 489.795 464.117 498.895C467.417 502.895 472.417 502.995 476.117 499.295C478.417 496.895 478.617 496.295 478.017 490.895C477.317 484.995 477.317 484.995 484.617 477.995C491.917 470.995 491.917 470.995 495.917 473.295C498.117 474.595 503.717 477.695 508.417 480.295C516.517 484.595 517.017 485.095 518.217 489.295C519.717 494.995 523.517 499.395 529.817 502.695C534.417 505.095 536.017 505.395 544.917 505.395C554.017 505.395 555.317 505.195 559.617 502.595C565.017 499.495 567.017 496.895 568.517 491.595C570.617 483.795 565.517 476.095 555.217 471.295C547.017 467.495 535.417 467.295 528.517 470.695C524.117 472.895 524.117 472.895 516.517 468.495C503.217 460.795 477.817 447.195 474.417 445.995C472.617 445.395 469.017 444.995 466.517 444.995C462.117 445.195 462.217 445.195 468.017 445.895C474.417 446.595 484.517 451.495 511.717 466.995C523.817 473.995 523.817 473.995 528.917 471.795C534.917 469.095 543.817 468.995 552.317 471.495C556.417 472.695 559.117 474.295 562.617 477.895C567.017 482.195 567.417 482.995 567.417 487.295C567.417 498.395 559.017 504.895 544.817 504.895C536.717 504.895 529.217 502.095 524.217 497.195C520.517 493.595 517.717 487.795 518.817 485.995C519.417 485.095 516.717 483.495 498.517 473.595C491.117 469.595 491.117 469.595 483.117 477.695C477.017 483.995 475.317 486.295 475.917 487.595C477.917 492.095 477.617 495.995 475.317 498.495C468.817 505.395 458.817 495.695 461.317 484.895C462.517 479.595 463.617 477.995 471.617 470.295C479.017 463.095 479.017 463.095 473.217 459.895C467.417 456.795 467.417 456.795 460.517 460.195C454.217 463.295 452.817 463.695 443.917 463.795C437.117 463.895 432.517 463.495 428.717 462.295C422.917 460.495 415.317 454.495 412.817 449.795C410.917 446.095 408.417 431.795 408.517 425.395C408.717 420.395 408.717 420.395 409.717 424.195C410.317 426.195 411.117 427.895 411.617 427.895C412.117 427.895 412.417 430.395 412.317 433.495C412.217 436.595 412.617 439.395 413.217 439.695C413.717 440.095 414.517 442.095 414.917 444.195C415.317 446.195 416.017 447.895 416.517 447.895C417.017 447.895 417.417 448.795 417.417 449.795C417.417 452.095 422.817 456.895 425.517 456.895C426.517 456.895 427.417 457.295 427.417 457.795C427.417 458.295 429.317 458.895 431.617 459.295C433.917 459.695 436.217 460.495 436.617 461.195C437.517 462.695 448.717 462.595 449.217 461.095C449.417 460.495 451.217 459.695 453.217 459.295C455.217 458.895 457.717 457.795 458.717 456.795C460.917 454.495 468.117 454.195 472.717 456.295C474.517 457.095 477.217 457.995 478.717 458.295C481.317 458.895 481.517 459.195 481.217 463.595C480.917 467.695 480.517 468.395 477.417 470.195C472.517 472.795 467.417 477.895 467.417 480.095C467.417 481.095 467.017 481.895 466.517 481.895C464.617 481.895 464.317 488.795 466.017 492.095C467.917 495.895 469.117 496.895 471.817 496.895C473.517 496.895 473.617 496.295 472.917 489.395C472.417 484.195 472.617 481.895 473.317 481.895C473.917 481.895 477.917 478.495 482.217 474.395C488.617 468.195 490.517 466.895 493.217 466.895C495.217 466.895 497.117 467.695 498.117 468.895C499.117 469.995 500.617 470.895 501.617 470.895C502.617 470.895 503.417 471.395 503.417 471.895C503.417 472.495 504.217 472.895 505.217 472.895C506.117 472.895 507.517 473.795 508.217 474.895C508.917 475.995 510.317 476.895 511.417 476.895C512.517 476.895 515.317 477.895 517.817 478.995C522.117 481.095 522.217 481.295 522.817 486.895C523.717 494.595 525.817 496.395 538.717 500.195C540.717 500.795 542.417 501.695 542.417 502.095C542.417 502.495 543.517 502.895 544.917 502.895C546.317 502.895 547.417 502.595 547.417 502.195C547.417 501.695 550.417 500.495 554.017 499.395C560.817 497.395 563.917 494.795 565.017 490.295C565.417 488.795 565.017 487.395 564.017 486.395C563.117 485.495 562.417 483.995 562.417 482.995C562.417 480.795 559.317 477.895 557.117 477.895C556.217 477.895 555.417 477.495 555.417 476.995C555.417 476.495 553.917 475.795 552.017 475.495C550.117 475.095 548.417 474.195 548.117 473.495C547.517 471.995 542.417 470.695 542.417 471.995C542.417 472.495 541.417 472.895 540.317 472.895C537.317 472.895 530.017 475.095 529.317 476.195C528.317 477.695 517.717 475.995 517.017 474.295C516.717 473.495 515.817 472.895 515.017 472.895C514.217 472.895 512.417 471.795 511.017 470.395C509.617 468.995 507.317 467.895 505.917 467.895C504.517 467.895 502.617 466.995 501.717 465.895C500.717 464.795 499.417 463.895 498.617 463.895C496.517 463.895 491.017 460.795 489.617 458.795C488.917 457.695 487.417 456.895 486.317 456.895C483.817 456.895 480.217 455.095 479.117 453.295C478.717 452.495 477.417 451.895 476.417 451.895C474.117 451.895 469.217 449.895 468.117 448.395C467.517 447.695 467.117 447.795 466.717 448.695C466.517 449.295 465.517 449.895 464.617 449.895C463.717 449.895 460.617 450.995 457.917 452.295C453.417 454.295 451.617 454.595 441.417 454.395C429.417 454.195 426.417 453.595 426.417 451.295C426.417 450.595 425.617 449.395 424.617 448.695C421.517 446.495 417.617 419.095 420.617 420.095C422.617 420.795 423.217 422.995 424.717 434.895C426.417 447.995 427.017 448.895 436.217 451.495C440.517 452.795 442.717 452.895 445.817 452.095C451.317 450.695 462.317 445.995 460.117 445.895C459.117 445.895 456.117 446.995 453.417 448.395C445.517 452.395 432.617 451.495 428.617 446.595C427.217 444.995 424.417 429.895 424.417 424.295C424.417 421.195 424.417 421.195 438.717 420.595C460.617 419.795 477.117 414.395 496.817 401.495C513.417 390.695 511.817 387.895 482.917 376.395C475.517 373.495 466.817 369.395 463.617 367.495C458.017 363.895 458.017 363.895 488.417 363.895C515.917 363.895 519.317 364.095 522.917 365.795C528.317 368.295 529.017 369.195 537.917 385.895C545.517 400.095 558.617 423.895 584.517 470.595C598.317 495.395 598.917 497.295 595.917 504.595C593.917 509.395 591.817 511.595 586.917 514.295C582.917 516.395 582.917 516.395 371.917 516.595C255.917 516.595 159.617 516.395 157.917 515.995ZM208.417 502.395C219.417 496.395 223.217 485.595 217.117 477.595C214.317 473.895 208.717 470.195 207.617 471.295C207.317 471.595 207.617 471.895 208.217 471.895C210.217 471.895 217.117 478.695 218.417 481.895C222.817 492.595 209.217 504.895 193.017 504.895C185.717 504.895 181.217 503.595 176.617 500.195C168.117 493.795 168.317 483.295 177.117 475.995C181.117 472.695 181.017 471.795 176.817 474.495C172.917 477.095 169.417 483.895 169.417 488.995C169.417 495.095 172.917 499.995 179.617 503.395C184.417 505.795 185.717 505.995 193.917 505.695C201.617 505.395 203.717 504.895 208.417 502.395ZM195.417 502.095C195.417 501.695 197.117 500.795 199.217 500.195C205.517 498.295 210.417 496.295 211.617 495.095C215.117 491.595 215.817 481.295 212.717 478.695C211.117 477.395 205.517 475.095 201.717 474.195C200.417 473.895 199.417 473.295 199.417 472.795C199.417 472.295 198.117 471.895 196.417 471.895C194.817 471.895 193.417 472.195 193.417 472.695C193.417 473.095 190.717 474.195 187.417 475.295C184.117 476.295 181.417 477.495 181.417 477.895C181.417 478.395 180.417 478.895 179.217 479.095C177.717 479.295 176.817 480.195 176.617 481.695C176.417 482.895 175.817 483.895 175.317 483.895C174.817 483.895 174.417 484.795 174.417 485.895C174.417 486.995 173.817 487.895 173.217 487.995C172.217 487.995 172.217 488.195 173.217 488.595C173.817 488.795 174.417 490.195 174.417 491.495C174.417 495.195 178.217 498.295 184.717 499.795C187.817 500.595 190.417 501.595 190.417 502.095C190.417 502.495 191.517 502.895 192.917 502.895C194.317 502.895 195.417 502.495 195.417 502.095ZM305.017 494.195C308.217 493.095 311.517 490.895 314.617 487.695C319.217 482.895 319.217 482.895 348.617 482.595C377.917 482.395 377.917 482.395 348.017 482.095C318.117 481.895 318.117 481.895 314.617 485.895C309.517 491.895 304.417 494.195 294.717 494.695C285.817 495.195 282.617 494.395 276.217 490.195C272.217 487.495 269.417 482.695 269.417 478.495C269.417 471.495 276.917 463.395 285.917 460.795C290.217 459.495 290.417 459.295 290.417 455.795C290.417 453.795 290.717 450.895 291.017 449.295C291.617 446.395 291.617 446.395 268.817 446.595C247.217 446.795 246.117 446.895 244.717 448.895C243.917 449.995 240.917 452.195 238.117 453.695C233.517 456.095 231.817 456.395 223.917 456.395C213.217 456.295 207.217 454.095 203.017 448.695C199.317 443.795 198.817 439.995 201.217 434.595C204.617 426.795 213.817 422.195 226.817 421.695C229.517 421.595 228.617 421.395 223.917 420.995C220.117 420.595 216.717 420.595 216.417 420.995C216.117 421.395 214.317 422.295 212.417 423.095C205.217 426.095 198.417 434.295 198.417 439.895C198.417 443.395 201.017 448.395 204.517 451.795C209.217 456.195 216.817 458.195 226.417 457.695C234.517 457.195 240.617 454.695 244.817 449.995C246.617 447.995 247.617 447.895 268.317 447.895C289.917 447.895 289.917 447.895 289.617 453.195C289.217 458.495 289.217 458.495 284.217 460.295C278.417 462.295 271.617 468.095 269.717 472.595C266.117 481.295 270.017 489.095 280.417 493.795C286.117 496.395 297.917 496.595 305.017 494.195ZM381.817 479.695C383.217 477.795 383.417 473.695 383.217 452.395C382.917 427.395 382.917 427.395 382.717 452.395C382.417 476.295 382.317 477.395 380.217 479.595C379.017 480.895 378.617 481.895 379.217 481.895C379.817 481.895 381.017 480.895 381.817 479.695ZM188.317 470.295C189.717 469.095 184.417 470.195 182.817 471.395C181.117 472.695 181.217 472.795 184.417 471.695C186.317 471.095 188.117 470.395 188.317 470.295ZM201.917 469.195C200.817 468.995 198.917 468.295 197.617 467.595C195.917 466.795 195.117 466.795 194.617 467.595C194.217 468.195 193.017 468.895 191.917 469.195C190.817 469.395 193.117 469.695 196.917 469.695C200.817 469.695 203.017 469.495 201.917 469.195ZM524.917 455.295C527.417 454.095 527.517 453.995 525.417 454.495C524.017 454.795 519.917 455.295 516.317 455.595C499.917 456.795 486.017 446.595 488.817 435.395C489.817 431.395 496.117 425.195 500.717 423.495C503.217 422.595 504.117 421.995 502.817 421.995C499.717 421.895 492.017 427.195 489.617 431.095C484.517 439.295 488.417 448.195 499.517 453.795C505.017 456.495 506.717 456.895 513.817 456.895C518.817 456.795 523.017 456.195 524.917 455.295ZM517.417 453.095C517.417 452.695 519.617 451.595 522.417 450.595C527.917 448.595 532.117 444.995 532.917 441.595C533.517 438.895 531.117 431.695 529.217 430.795C522.717 427.695 518.117 425.895 516.917 425.895C516.117 425.895 515.417 425.395 515.417 424.795C515.417 424.195 514.517 423.995 513.217 424.395C494.217 429.595 491.817 431.295 492.817 439.295C493.117 441.995 494.017 444.895 494.817 445.795C496.317 447.195 500.917 449.195 507.717 451.195C509.717 451.795 511.417 452.695 511.417 453.095C511.417 453.495 512.817 453.895 514.417 453.895C516.117 453.895 517.417 453.595 517.417 453.095ZM534.017 449.695C537.117 446.295 538.417 443.395 538.417 439.895C538.417 436.395 535.517 430.195 532.817 427.795C530.417 425.695 522.917 421.895 521.217 421.895C520.517 421.895 521.917 422.895 524.417 423.995C538.717 430.495 541.517 442.495 530.717 451.595C529.017 453.095 528.717 453.595 529.917 452.995C531.017 452.495 532.917 450.995 534.017 449.695ZM517.417 421.195C516.017 420.895 514.417 420.295 513.817 419.795C513.117 419.195 512.217 419.395 511.417 420.395C510.317 421.695 510.817 421.895 515.017 421.795C517.817 421.695 518.817 421.395 517.417 421.195Z" fill="#29963C"/>
<path d="M187.417 496.195C184.517 494.995 183.517 492.395 183.417 486.695C183.417 481.195 183.517 480.895 185.817 480.895C187.217 480.895 189.017 480.195 189.917 479.295C192.417 476.695 202.717 477.795 205.417 480.895C207.817 483.695 208.217 490.395 205.917 491.295C205.117 491.595 204.417 492.495 204.417 493.295C204.417 493.995 203.617 494.995 202.717 495.395C200.117 496.295 189.117 496.995 187.417 496.195ZM199.917 491.495C202.617 490.295 203.417 489.395 203.417 487.495C203.417 483.695 200.917 481.895 195.517 481.895C189.717 481.895 185.417 484.695 185.417 488.495C185.417 492.695 193.217 494.295 199.917 491.495Z" fill="#29963C"/>
<path d="M188.017 490.595C183.717 487.495 188.517 482.895 196.017 482.895C200.517 482.895 202.817 484.595 202.217 487.595C201.517 491.295 191.817 493.395 188.017 490.595Z" fill="#29963C"/>
<path d="M509.217 446.195C502.717 445.795 502.417 445.695 502.417 443.395C502.417 441.995 502.017 440.895 501.417 440.895C500.917 440.895 500.417 439.395 500.417 437.695C500.417 435.095 501.017 434.095 503.117 433.195C507.017 431.295 517.717 431.595 521.917 433.595C525.017 435.095 525.417 435.695 525.417 439.095C525.417 443.795 522.617 446.995 518.717 446.695C517.117 446.595 512.917 446.395 509.217 446.195ZM518.317 443.395C522.117 441.495 522.717 439.495 520.317 436.495C516.817 431.995 507.817 431.895 504.817 436.295C502.917 439.295 503.817 441.295 507.717 443.295C511.717 445.295 514.717 445.295 518.317 443.395Z" fill="#29963C"/>
<path d="M507.217 441.795C505.117 440.595 504.917 437.795 506.617 436.095C508.117 434.595 514.517 434.495 517.917 436.095C520.717 437.395 521.417 441.295 518.817 442.295C516.317 443.195 509.117 442.895 507.217 441.795Z" fill="#29963C"/>
<path d="M536.417 494.795C536.417 494.295 535.517 493.895 534.417 493.895C531.917 493.895 530.417 490.995 530.417 485.995C530.417 482.195 530.617 481.995 534.917 480.295C540.617 478.195 548.317 478.895 553.017 482.095C555.817 483.995 556.417 484.995 556.417 488.195C556.417 490.195 556.017 491.895 555.417 491.895C554.917 491.895 554.417 492.495 554.417 493.295C554.417 494.095 553.617 494.995 552.717 495.295C549.517 496.195 536.417 495.795 536.417 494.795ZM549.917 491.695C553.717 489.995 553.417 485.495 549.217 482.895C541.117 477.995 530.517 482.995 535.517 489.295C536.617 490.695 538.117 491.895 538.717 491.895C539.317 491.895 538.817 491.195 537.617 490.295C534.217 487.895 534.717 484.295 538.717 482.995C544.017 481.195 551.417 484.095 551.417 487.995C551.417 490.295 550.317 490.895 544.617 491.895C540.017 492.595 540.017 492.695 543.617 492.795C545.617 492.795 548.517 492.395 549.917 491.695Z" fill="#29963C"/>
<path d="M284.717 485.195C284.017 484.895 283.417 483.595 283.417 482.295C283.417 480.995 283.017 479.895 282.417 479.895C281.917 479.895 281.417 478.395 281.417 476.595C281.417 473.895 282.017 472.995 285.117 471.395C289.617 468.995 299.417 468.695 304.217 470.895C307.117 472.195 307.417 472.795 307.417 476.495C307.417 479.295 306.917 480.895 305.917 481.295C305.117 481.595 304.417 482.495 304.417 483.295C304.417 484.095 303.617 484.995 302.717 485.195C300.417 485.895 286.317 485.795 284.717 485.195ZM300.417 481.395C302.717 480.195 303.417 479.195 303.417 476.895C303.417 471.795 296.717 469.295 290.017 471.895C287.017 472.995 284.117 477.095 284.917 479.095C286.317 482.795 295.317 484.095 300.417 481.395Z" fill="#29963C"/>
<path d="M288.717 480.895C285.517 479.595 285.717 475.595 289.017 473.795C292.217 472.095 298.817 472.195 300.917 473.895C302.817 475.495 302.817 478.295 300.917 479.895C298.917 481.495 291.517 482.095 288.717 480.895Z" fill="#29963C"/>
<path d="M218.417 448.095C218.417 447.595 216.817 446.695 214.917 445.895C211.717 444.595 211.417 444.195 211.417 440.295C211.417 437.495 211.917 435.895 212.917 435.495C213.717 435.195 214.417 434.295 214.417 433.495C214.417 431.895 220.017 429.895 224.417 429.895C228.117 429.895 233.217 431.495 234.917 433.295C236.917 435.295 236.917 443.595 234.917 445.595C232.317 448.195 218.417 450.295 218.417 448.095ZM229.817 443.795C234.317 441.695 234.317 437.095 229.817 435.095C223.617 432.195 215.417 434.895 215.417 439.895C215.417 441.595 216.117 443.195 217.217 443.795C219.517 445.195 226.717 445.195 229.817 443.795Z" fill="#29963C"/>
<path d="M217.417 442.395C213.217 437.295 224.717 432.095 230.417 436.695C233.017 438.795 232.217 441.595 228.717 442.995C225.017 444.395 218.817 444.095 217.417 442.395Z" fill="#29963C"/>
<path d="M363.417 407.795C353.017 406.995 343.417 405.095 335.817 402.095C330.917 400.095 330.917 400.095 322.417 402.995C314.217 405.895 313.417 405.995 299.417 405.495C288.517 405.195 283.117 404.595 277.617 402.995C269.317 400.595 255.417 394.895 255.417 393.995C255.417 393.195 266.717 387.895 278.317 383.395C287.017 379.895 288.017 379.795 291.417 380.895C293.517 381.595 295.617 381.895 296.217 381.495C296.817 381.195 298.617 377.995 300.217 374.495C304.317 365.795 310.717 356.495 317.117 350.095C328.817 338.395 349.117 333.095 363.617 338.095C367.717 339.495 376.017 345.295 384.217 352.395C387.617 355.395 391.317 357.895 392.317 357.895C395.117 357.895 398.417 353.195 398.417 349.395C398.417 347.395 397.317 344.595 395.417 342.095C392.517 337.995 392.517 337.995 397.717 338.295C409.017 339.095 423.017 346.895 431.217 356.995C436.617 363.595 442.417 373.595 442.417 376.295C442.417 378.295 444.617 379.395 451.117 380.795C453.917 381.395 460.217 383.695 465.117 385.995C469.917 388.195 475.417 390.795 477.317 391.595C480.717 393.095 480.717 393.095 476.317 395.095C469.417 398.295 461.517 400.895 454.117 402.395C444.917 404.395 427.317 404.295 418.017 402.295C410.517 400.595 410.517 400.595 404.717 403.195C395.317 407.395 380.617 408.995 363.417 407.795Z" fill="#8E5A2B"/>
<path d="M545.216 515.195C551.916 514.995 562.916 514.995 569.716 515.195C576.416 515.295 570.916 515.495 557.416 515.495C543.916 515.495 538.416 515.295 545.216 515.195Z" fill="#83BF28"/>
<path d="M160.117 460.395C161.017 458.495 161.917 457.095 162.217 457.295C162.617 457.795 159.617 463.895 158.917 463.895C158.617 463.895 159.217 462.295 160.117 460.395Z" fill="#83BF28"/>
<path d="M169.517 443.395C169.517 442.895 170.117 441.295 170.917 439.895C171.717 438.495 172.317 437.895 172.317 438.395C172.317 438.995 171.717 440.495 170.917 441.895C170.117 443.295 169.517 443.995 169.517 443.395Z" fill="#83BF28"/>
<path d="M177.417 428.495C177.417 427.395 181.417 419.895 181.917 419.895C182.217 419.895 181.517 421.795 180.317 424.195C178.017 428.695 177.417 429.595 177.417 428.495Z" fill="#83BF28"/>
<path d="M189.917 403.895C191.817 400.095 193.717 396.895 193.917 396.895C194.217 396.895 192.817 400.095 190.917 403.895C189.017 407.795 187.117 410.895 186.917 410.895C186.617 410.895 188.017 407.795 189.917 403.895Z" fill="#83BF28"/>
<path d="M197.517 390.395C197.517 389.895 198.317 387.795 199.417 385.895C200.517 383.995 201.317 382.895 201.317 383.395C201.317 383.995 200.517 385.995 199.417 387.895C198.317 389.795 197.517 390.995 197.517 390.395Z" fill="#83BF28"/>
<path d="M275.317 364.795C274.317 364.195 274.617 363.895 276.717 363.895C279.617 363.895 280.217 364.395 278.117 365.195C277.317 365.495 276.117 365.295 275.317 364.795Z" fill="#83BF28"/>
<path d="M404.416 162.195C404.416 161.795 407.216 156.495 410.716 150.395C418.216 137.095 431.416 118.495 441.016 107.495C455.916 90.3952 480.816 67.6952 496.416 56.8952C500.316 54.2952 503.116 51.8952 502.716 51.5952C501.316 50.6952 483.116 57.3952 475.516 61.4952C467.516 65.7952 453.516 75.9952 443.516 84.7952C431.816 94.8952 414.116 116.895 401.916 136.195C399.316 140.395 397.016 143.895 396.816 143.895C396.116 143.895 396.516 125.395 397.416 118.095C399.916 97.6952 404.416 84.7952 413.716 70.5952C433.416 40.3952 470.116 21.6952 516.916 17.8952C531.116 16.7952 546.516 16.5952 548.016 17.6952C551.216 19.7952 550.316 46.2952 546.316 65.2952C538.116 104.895 514.316 134.495 479.116 148.995C470.316 152.695 456.216 156.495 446.416 157.895C442.316 158.495 437.816 159.195 436.416 159.495C435.016 159.695 428.716 160.295 422.416 160.895C416.116 161.495 409.416 162.195 407.716 162.495C405.916 162.695 404.416 162.595 404.416 162.195Z" fill="#83BF28"/>
<path d="M322.917 160.195C299.617 159.395 277.817 156.095 262.217 150.895C226.317 138.895 202.317 111.995 192.417 72.4952C188.117 55.2952 185.717 25.0952 188.617 23.2952C189.217 22.8952 197.217 22.5952 206.317 22.5952C225.517 22.6952 238.717 24.3952 256.617 29.2952C292.817 39.2952 315.017 55.7952 327.917 82.1952C335.417 97.6952 338.417 114.695 336.717 131.795C335.917 139.295 335.917 139.295 327.017 126.895C299.717 89.0952 272.917 67.1952 243.517 58.7952C240.017 57.7952 236.717 57.1952 236.217 57.4952C235.717 57.7952 237.417 59.3952 240.017 60.9952C254.817 70.4952 283.617 96.6952 298.417 114.395C312.817 131.595 332.017 159.195 330.317 160.195C330.117 160.295 326.817 160.295 322.917 160.195Z" fill="#83BF28"/>
<path d="M182.617 502.995C176.317 500.795 172.917 497.795 171.317 493.095C168.717 485.295 172.817 477.795 182.117 473.195C187.117 470.795 189.117 470.395 196.417 470.395C205.717 470.395 210.617 472.195 215.317 477.295C218.917 481.195 219.417 489.195 216.217 493.895C209.817 503.295 195.017 507.295 182.617 502.995ZM199.117 492.395C200.417 492.095 202.117 490.795 203.017 489.395C204.517 487.095 204.517 486.695 203.017 484.395C200.917 481.095 195.817 480.295 190.817 482.395C186.517 484.195 185.417 485.395 185.417 488.695C185.417 490.295 186.317 491.395 188.617 492.295C191.617 493.595 193.717 493.595 199.117 492.395Z" fill="#EDEDCC"/>
<path d="M535.917 503.595C525.717 500.195 520.417 495.295 519.717 488.595C519.217 484.295 519.017 484.195 512.017 480.595C508.117 478.595 501.917 475.295 498.117 473.195C491.417 469.395 491.417 469.395 483.317 477.495C475.317 485.495 475.317 485.495 476.517 490.195C477.517 494.195 477.417 495.295 476.017 497.395C471.017 505.095 461.417 498.795 461.417 487.795C461.417 481.695 463.917 477.495 472.117 469.895C479.617 462.995 479.617 462.995 473.317 459.895C467.017 456.695 467.017 456.695 460.517 459.995C454.217 463.295 453.517 463.395 442.417 463.395C432.417 463.395 430.217 463.095 425.617 460.995C417.617 457.395 412.917 451.395 410.817 442.195C409.917 438.095 409.117 431.495 409.017 427.595C408.917 420.695 409.017 420.495 411.617 419.495C413.317 418.895 415.717 418.895 418.117 419.495C421.817 420.395 421.817 420.395 423.917 433.295C426.417 448.295 427.617 449.995 436.817 451.895C443.217 453.195 447.817 452.495 454.917 449.295C462.417 445.795 468.417 445.295 474.117 447.395C478.117 448.895 509.217 465.495 521.017 472.495C524.017 474.195 524.217 474.195 528.017 472.395C536.717 468.095 552.317 469.695 560.217 475.595C570.617 483.395 569.617 496.095 558.117 501.795C552.217 504.695 541.817 505.495 535.917 503.595ZM550.317 491.895C556.617 488.595 550.717 480.895 542.017 480.895C537.317 480.895 532.917 484.595 533.817 487.695C534.217 488.895 535.717 490.595 537.217 491.395C540.317 492.995 547.717 493.395 550.317 491.895Z" fill="#EDEDCC"/>
<path d="M283.017 493.495C271.417 489.195 266.817 479.795 272.017 470.995C274.317 467.195 281.317 462.295 286.617 460.795C289.617 459.995 290.417 459.295 290.417 457.495C290.417 456.195 290.717 453.095 291.017 450.495C291.717 445.895 291.717 445.895 269.217 445.895C246.817 445.895 246.817 445.895 243.817 448.995C239.017 454.195 233.117 456.195 223.417 456.295C216.517 456.295 214.017 455.895 210.117 453.995C203.717 450.895 200.417 445.995 200.417 439.595C200.417 435.395 200.917 434.295 204.517 430.395C209.717 424.795 215.717 422.395 224.917 422.395C233.717 422.395 242.517 426.295 245.617 431.495C247.617 434.895 247.617 434.895 275.917 434.895C300.017 434.895 304.317 435.095 305.417 436.395C306.417 437.595 306.517 440.895 306.017 449.795C305.317 461.695 305.317 461.695 307.917 462.295C309.317 462.695 312.217 464.495 314.317 466.395C318.117 469.895 318.117 469.895 342.817 469.895C367.417 469.895 367.417 469.895 367.417 448.395C367.417 426.895 367.417 426.895 374.417 426.895C381.417 426.895 381.417 426.895 381.417 452.795C381.417 475.595 381.217 478.795 379.717 479.995C378.417 481.095 371.717 481.495 347.917 481.695C317.617 481.995 317.617 481.995 314.417 486.095C312.617 488.295 309.117 490.995 306.617 492.095C300.717 494.795 288.317 495.495 283.017 493.495ZM301.917 480.395C305.117 477.295 305.017 475.595 301.717 472.895C299.417 471.095 298.017 470.795 294.117 471.195C289.317 471.595 284.417 474.795 284.417 477.595C284.417 482.995 297.217 485.095 301.917 480.395ZM231.217 443.295C233.717 441.695 234.117 437.795 232.017 435.995C227.517 432.295 218.617 433.095 215.817 437.395C213.717 440.595 214.617 442.595 218.617 444.395C222.317 445.995 227.617 445.495 231.217 443.295Z" fill="#EDEDCC"/>
<path d="M504.917 454.495C492.517 450.595 486.617 442.995 489.417 434.495C492.017 426.595 503.217 421.195 514.817 422.095C521.217 422.695 529.517 426.095 532.617 429.595C535.517 432.795 537.617 438.795 536.917 442.095C534.617 452.295 518.117 458.695 504.917 454.495ZM520.517 442.295C523.017 439.995 522.917 438.695 519.817 435.795C514.417 430.695 502.017 433.895 503.917 439.895C505.417 444.595 516.217 446.195 520.517 442.295Z" fill="#EDEDCC"/>
<path d="M551.417 502.895C551.417 502.395 552.117 501.895 552.917 501.895C553.717 501.895 554.417 502.395 554.417 502.895C554.417 503.495 553.717 503.895 552.917 503.895C552.117 503.895 551.417 503.495 551.417 502.895Z" fill="white"/>
<path d="M539.217 470.195C540.417 469.995 542.217 469.995 543.217 470.195C544.117 470.495 543.117 470.695 540.917 470.595C538.717 470.595 537.917 470.395 539.217 470.195Z" fill="white"/>
<path d="M380.717 454.395C380.717 452.195 380.917 451.395 381.117 452.695C381.317 453.895 381.317 455.695 381.117 456.695C380.817 457.595 380.617 456.595 380.717 454.395Z" fill="white"/>
<path d="M367.817 445.395C367.817 440.495 367.917 438.295 368.117 440.595C368.317 442.895 368.317 446.995 368.117 449.595C367.917 452.195 367.817 450.395 367.817 445.395Z" fill="white"/>
<path d="M504.017 435.095C503.717 434.495 503.917 433.695 504.517 433.395C506.017 432.395 507.017 433.695 505.717 434.995C505.017 435.695 504.417 435.695 504.017 435.095Z" fill="white"/>
<path d="M222.217 423.195C224.017 422.995 226.717 422.995 228.217 423.195C229.717 423.395 228.217 423.595 224.917 423.595C221.617 423.595 220.417 423.395 222.217 423.195Z" fill="white"/>
</svg>
